<svg width="794" height="398" viewBox="0 0 794 398" fill="none" xmlns="http://www.w3.org/2000/svg">
<path d="M261.48 398C237.521 398 213.599 397.571 189.712 396.713C155.581 395.487 120.288 394.221 87.4838 376.028C64.5361 363.302 44.2124 342.886 28.7103 316.983C18.349 299.427 10.7516 280.381 6.18503 260.513C-2.33338 224.342 -2.04323 186.654 7.03108 150.618C10.2111 138.263 14.5949 126.249 20.1196 114.749C44.0422 65.2137 87.6751 31.962 139.831 23.5206C140.262 23.4647 140.697 23.4554 141.13 23.4929C141.365 23.5054 141.598 23.5189 141.837 23.5089L142.144 23.4114C142.93 23.138 143.738 22.9306 144.559 22.7914C224.997 10.8174 310.032 35.0451 390.464 92.8535C452.654 137.557 535.073 161.629 642.432 166.445L643.956 166.525C673.843 168.242 702.751 180.562 727.561 202.156C752.049 223.47 770.435 251.905 780.732 284.391C781.997 288.352 783.158 292.474 784.18 296.644C785.133 300.519 785.065 304.574 783.985 308.416C782.905 312.257 780.849 315.753 778.018 318.565V318.573L777.75 318.847C777.107 319.487 776.429 320.101 775.737 320.673L774.923 321.344C768.062 326.995 762.643 331.459 756.158 334.926C751.832 337.223 747.232 338.96 742.467 340.095C716.305 346.473 689.737 352.386 663.501 357.671C612.55 367.944 560.256 376.418 508.072 382.857C426.262 392.944 343.909 398.001 261.48 398ZM140.52 25.2473C140.36 25.2458 140.2 25.2567 140.041 25.2798C88.3728 33.6423 45.1529 66.5675 21.4676 115.613C15.9974 126.998 11.6569 138.893 8.50856 151.126C-0.483056 186.842 -0.769594 224.196 7.67304 260.046C12.1949 279.723 19.7186 298.587 29.9799 315.976C45.3302 341.624 65.4462 361.836 88.1533 374.427C120.663 392.457 155.79 393.719 189.76 394.938C296.009 398.734 402.391 394.104 507.907 381.092C560.057 374.656 612.317 366.188 663.236 355.922C689.454 350.64 716.003 344.732 742.148 338.357C746.797 337.251 751.287 335.557 755.508 333.316C761.863 329.919 767.23 325.497 774.025 319.899L774.839 319.229C775.435 318.737 776.019 318.212 776.578 317.666L776.738 317.498C782.323 311.87 784.494 304.445 782.696 297.127V297.126C781.685 293.001 780.536 288.922 779.283 285.002C758.249 218.64 703.836 171.742 643.883 168.299L642.367 168.219C593.327 166.019 550.413 159.924 511.179 149.583C464.342 137.24 423.453 118.66 389.647 94.3596C309.522 36.7726 224.843 12.6351 144.756 24.5524C144.008 24.6814 143.272 24.8722 142.555 25.1229L142.002 25.2776C141.688 25.2917 141.373 25.2879 141.059 25.2663C140.874 25.2568 140.695 25.2473 140.52 25.2473H140.52Z" fill="#F0F0F0"/>
<path d="M248.013 129.673C245.795 127.545 243.526 115.68 240.695 114.475C242.811 119.153 241.275 120.391 241.263 125.525C241.29 128.44 240.95 131.346 240.25 134.176H192.282V96.7437C192.282 93.3802 192.945 90.0498 194.232 86.9423C195.519 83.8349 197.406 81.0114 199.784 78.6331C202.163 76.2548 204.986 74.3683 208.094 73.0812C211.201 71.7941 214.532 71.1317 217.896 71.1318C219.18 71.1569 220.455 71.3436 221.692 71.6876C225.815 72.8007 229.573 74.9783 232.589 78.002C235.604 81.0257 237.772 84.7892 238.874 88.915C242.531 102.28 248.346 124.527 248.013 129.673Z" fill="#2F2E41"/>
<path d="M195.097 175.722L195.12 146.546L177.968 148.079L184.022 166.48L181.189 212.733C179.815 213.041 178.56 213.743 177.578 214.752C176.596 215.761 175.928 217.034 175.657 218.416C175.386 219.797 175.522 221.228 176.05 222.533C176.578 223.839 177.475 224.962 178.63 225.767C179.786 226.572 181.15 227.023 182.558 227.066C183.965 227.109 185.355 226.741 186.557 226.007C187.759 225.274 188.722 224.207 189.328 222.936C189.934 221.665 190.157 220.245 189.97 218.849L195.097 175.722Z" fill="#FFB6B6"/>
<path d="M228.851 384.219L235.781 384.218L239.077 357.492H228.85L228.851 384.219Z" fill="#FFB6B6"/>
<path d="M226.505 380.801L237.459 380.147V384.84L247.873 392.032C248.387 392.387 248.775 392.897 248.979 393.488C249.183 394.079 249.192 394.72 249.006 395.316C248.82 395.913 248.448 396.435 247.945 396.805C247.441 397.175 246.832 397.375 246.207 397.375H233.166L230.918 392.733L230.041 397.375H225.124L226.505 380.801Z" fill="#2F2E41"/>
<path d="M188.785 384.219L195.715 384.218L199.01 357.492H188.784L188.785 384.219Z" fill="#FFB6B6"/>
<path d="M186.438 380.801L197.392 380.147V384.84L207.806 392.032C208.321 392.387 208.708 392.897 208.912 393.488C209.116 394.079 209.125 394.72 208.939 395.316C208.753 395.913 208.381 396.435 207.878 396.805C207.374 397.175 206.765 397.375 206.14 397.375H193.099L190.851 392.733L189.974 397.375H185.057L186.438 380.801Z" fill="#2F2E41"/>
<path d="M222.681 115.038L208.326 115.319L198.193 126.014L190.07 127.206C186.395 127.745 183.016 129.528 180.499 132.259C177.982 134.99 176.478 138.501 176.239 142.208L177.646 149.937H186.09L190.975 178.617C189.076 183.457 188.946 187.277 192.845 188.777L204.949 211.575L240.695 195.532C242.508 192.416 243.089 189.286 241.236 186.242L243.791 142.338H252.384C252.384 134.127 249.606 127.205 241.445 126.291C238.204 125.94 234.948 125.754 231.688 125.733L222.681 115.038Z" fill="#E6E6E6"/>
<path d="M240.695 195.532C240.695 195.532 205.792 201.724 192.845 188.777C192.845 188.777 191.53 191.009 189.55 194.71C188.98 195.774 187.88 196.495 187.216 197.784C186.612 198.955 185.059 200.396 184.401 201.725C183.872 202.793 184.721 204.19 184.17 205.345C177.539 219.252 169.793 238.869 171.453 251.822C172.524 260.175 174.736 279.613 177.066 300.49C177.248 302.121 175.774 304.216 175.957 305.86C176.129 307.411 177.959 308.509 178.132 310.063C178.246 311.095 176.968 312.147 177.083 313.178C177.208 314.308 178.725 315.417 178.85 316.543C182.042 345.369 184.964 372.282 184.964 372.282H201.289L204.369 310.816L201.852 288.41L207.763 243.097L215.925 286.159L216.975 310.394L225.602 373.408H240.695V312.407L241.82 309.238L240.695 305.173L241.82 300.794L240.695 296.025V195.532Z" fill="#2F2E41"/>
<path d="M227.087 106.714C224.863 109.668 221.7 111.776 218.118 112.692C214.536 113.608 210.749 113.276 207.38 111.752C204.011 110.228 201.262 107.603 199.585 104.308C197.908 101.013 197.404 97.2454 198.154 93.6253C198.905 90.0053 200.866 86.7488 203.715 84.3922C206.563 82.0355 210.13 80.7192 213.827 80.66C217.523 80.6009 221.13 81.8024 224.053 84.0667C226.976 86.331 229.04 89.5231 229.906 93.1173C229.953 93.3123 229.992 93.5062 230.031 93.7075C230.488 95.9603 230.462 98.2845 229.955 100.527C229.447 102.769 228.47 104.878 227.087 106.714Z" fill="#FFB6B6"/>
<path d="M223.694 97.4303C223.349 95.698 222.476 94.1151 221.195 92.899C221.321 94.559 221.091 96.2269 220.519 97.7906C216.24 98.1695 211.941 97.318 208.129 95.3364C205.258 93.3887 201.604 93.5576 197.349 95.3364C197.348 93.2665 197.756 91.2169 198.548 89.3045C199.34 87.3922 200.501 85.6546 201.965 84.191C203.428 82.7274 205.166 81.5664 207.079 80.7744C208.991 79.9824 211.041 79.5749 213.111 79.5752H215.926C220.106 79.576 224.114 81.2368 227.07 84.1924C230.026 87.148 231.687 91.1565 231.688 95.3364C229.09 96.268 226.415 96.9687 223.694 97.4303Z" fill="#2F2E41"/>
<path d="M100.553 298.312C125.562 298.312 145.836 278.04 145.836 253.033C145.836 228.025 125.562 207.753 100.553 207.753C75.5443 207.753 55.2705 228.025 55.2705 253.033C55.2705 278.04 75.5443 298.312 100.553 298.312Z" fill="#F0F0F0"/>
<path d="M389.12 90.559C414.129 90.559 434.402 70.2867 434.402 45.2795C434.402 20.2723 414.129 0 389.12 0C364.111 0 343.837 20.2723 343.837 45.2795C343.837 70.2867 364.111 90.559 389.12 90.559Z" fill="#F0F0F0"/>
<path d="M748.717 305.415C773.726 305.415 794 285.142 794 260.135C794 235.128 773.726 214.856 748.717 214.856C723.708 214.856 703.435 235.128 703.435 260.135C703.435 285.142 723.708 305.415 748.717 305.415Z" fill="#F0F0F0"/>
<path d="M470.806 50.2175V152.892C470.806 155.025 469.965 157.071 468.465 158.587C466.965 160.103 464.927 160.966 462.794 160.988C462.765 160.991 462.735 160.993 462.706 160.992H450.755C441.192 160.992 432.022 157.194 425.26 150.433C418.499 143.672 414.7 134.502 414.7 124.94V50.2175C414.7 48.0692 415.554 46.0089 417.073 44.4899C418.592 42.9708 420.652 42.1174 422.801 42.1174H427.643C425.4 48.6613 455.848 51.4164 457.519 42.1174H462.706C464.854 42.1174 466.914 42.9709 468.434 44.4899C469.953 46.009 470.806 48.0692 470.806 50.2175Z" fill="#FF1050"/>
<path d="M435.341 34.4397C435.341 34.1583 435.453 33.8885 435.652 33.6895C435.851 33.4905 436.121 33.3785 436.402 33.3782H443.621C443.902 33.379 444.172 33.4912 444.37 33.6902C444.569 33.8892 444.68 34.1587 444.68 34.4397C444.68 34.7207 444.569 34.9903 444.37 35.1893C444.172 35.3882 443.902 35.5004 443.621 35.5012H436.402C436.121 35.5009 435.851 35.389 435.652 35.19C435.453 34.991 435.341 34.7211 435.341 34.4397Z" fill="#3F3D56"/>
<path d="M465.185 174.015H419.533C415.991 174.011 412.596 172.603 410.091 170.099C407.587 167.594 406.178 164.199 406.174 160.657V88.8835C405.923 88.7035 405.719 88.4664 405.578 88.1917C405.438 87.917 405.364 87.6128 405.365 87.3042V80.0858C405.364 79.7773 405.438 79.4731 405.578 79.1985C405.719 78.924 405.923 78.6869 406.174 78.507V76.5696C405.923 76.3897 405.719 76.1526 405.578 75.878C405.438 75.6034 405.364 75.2993 405.365 74.9908V67.7719C405.364 67.4634 405.438 67.1592 405.578 66.8846C405.719 66.61 405.923 66.373 406.174 66.1931V62.6916C405.864 62.5253 405.606 62.2781 405.426 61.9764C405.246 61.6746 405.151 61.3296 405.152 60.9783V53.7599C405.151 53.4085 405.246 53.0635 405.426 52.7617C405.606 52.4598 405.864 52.2125 406.174 52.0462V42.4517C406.178 38.9101 407.587 35.5147 410.091 33.0104C412.596 30.5061 415.991 29.0975 419.533 29.0935H465.185C468.727 29.0975 472.123 30.5062 474.627 33.0105C477.132 35.5147 478.541 38.9102 478.545 42.4518V63.3657C478.785 63.5162 478.984 63.7253 479.121 63.9735C479.259 64.2217 479.331 64.5008 479.331 64.7845V78.5486C479.331 78.8324 479.259 79.1115 479.121 79.3598C478.984 79.6081 478.785 79.8173 478.545 79.9679V160.657C478.541 164.199 477.132 167.594 474.627 170.098C472.123 172.603 468.727 174.011 465.185 174.015ZM419.533 30.8692C416.462 30.8726 413.518 32.094 411.346 34.2654C409.175 36.4368 407.953 39.3809 407.95 42.4518V53.5566L407.095 53.5896C407.051 53.5911 407.009 53.6097 406.978 53.6414C406.947 53.6731 406.929 53.7155 406.928 53.7599V60.9783C406.929 61.0226 406.947 61.065 406.978 61.0967C407.009 61.1283 407.051 61.1469 407.095 61.1487L407.95 61.1812V67.4398L407.274 67.6062C407.237 67.6153 407.203 67.6364 407.179 67.6664C407.155 67.6963 407.141 67.7334 407.141 67.7719V74.9907C407.141 75.0292 407.155 75.0663 407.179 75.0962C407.203 75.1262 407.237 75.1473 407.274 75.1563L407.95 75.3228V79.7537L407.274 79.9202C407.237 79.9292 407.203 79.9503 407.179 79.9803C407.155 80.0102 407.141 80.0473 407.141 80.0858V87.3042C407.141 87.3427 407.155 87.3799 407.179 87.4099C407.203 87.44 407.237 87.4612 407.274 87.4702L407.95 87.6367V160.657C407.953 163.728 409.175 166.672 411.346 168.844C413.518 171.015 416.462 172.236 419.533 172.24H465.185C468.256 172.236 471.201 171.015 473.372 168.843C475.544 166.672 476.765 163.728 476.769 160.657V78.4476H477.555V64.886H476.769V42.4517C476.765 39.3809 475.544 36.4369 473.372 34.2655C471.201 32.0941 468.256 30.8727 465.185 30.8691L419.533 30.8692Z" fill="#3F3D56"/>
<path d="M447.655 35.5012C448.242 35.5012 448.717 35.026 448.717 34.4397C448.717 33.8534 448.242 33.3782 447.655 33.3782C447.069 33.3782 446.594 33.8534 446.594 34.4397C446.594 35.026 447.069 35.5012 447.655 35.5012Z" fill="#3F3D56"/>
<path d="M216.718 240.073H97.9286C96.2417 240.068 94.6251 239.396 93.4322 238.204C92.2393 237.011 91.5671 235.395 91.5625 233.708V175.831C91.5668 174.144 92.2388 172.528 93.4316 171.335C94.6243 170.142 96.2409 169.47 97.9278 169.465H216.717C218.404 169.47 220.02 170.141 221.213 171.334C222.406 172.527 223.078 174.143 223.083 175.83V233.707C223.079 235.394 222.407 237.01 221.214 238.203C220.021 239.396 218.405 240.068 216.718 240.073Z" fill="white"/>
<path d="M216.718 240.073H97.9286C96.2417 240.068 94.6251 239.396 93.4322 238.204C92.2393 237.011 91.5671 235.395 91.5625 233.708V175.831C91.5668 174.144 92.2388 172.528 93.4316 171.335C94.6243 170.142 96.2409 169.47 97.9278 169.465H216.717C218.404 169.47 220.02 170.141 221.213 171.334C222.406 172.527 223.078 174.143 223.083 175.83V233.707C223.079 235.394 222.407 237.01 221.214 238.203C220.021 239.396 218.405 240.068 216.718 240.073ZM97.9286 171.241C96.7122 171.244 95.5465 171.729 94.6864 172.59C93.8263 173.45 93.3417 174.615 93.3383 175.832V233.707C93.3418 234.923 93.8267 236.089 94.687 236.949C95.5472 237.809 96.713 238.294 97.9295 238.297H216.716C217.933 238.294 219.098 237.809 219.959 236.949C220.819 236.089 221.304 234.923 221.307 233.706V175.831C221.304 174.615 220.819 173.449 219.958 172.589C219.098 171.729 217.932 171.244 216.716 171.241L97.9286 171.241Z" fill="#3F3D56"/>
<path d="M163.69 231.519C140.262 231.519 115.833 231.296 106.719 231.15C105.519 231.126 104.377 230.633 103.536 229.778C102.695 228.923 102.222 227.773 102.217 226.574V178.665C102.218 178.235 102.388 177.823 102.692 177.519C102.995 177.215 103.406 177.044 103.836 177.042H210.806C211.235 177.042 211.647 177.213 211.951 177.516C212.255 177.82 212.427 178.231 212.428 178.66V211.166C212.408 216.472 210.309 221.559 206.582 225.335C202.854 229.111 197.795 231.276 192.489 231.366C183.994 231.476 173.935 231.519 163.69 231.519Z" fill="#FF1050"/>
<path d="M204.456 208.179H107.8C106.991 208.177 106.202 207.926 105.541 207.459C104.879 206.993 104.377 206.334 104.103 205.573L93.1632 174.884C92.9524 174.292 92.8867 173.658 92.9716 173.035C93.0565 172.413 93.2896 171.82 93.6513 171.306C94.013 170.792 94.4927 170.373 95.0501 170.083C95.6076 169.793 96.2264 169.641 96.8548 169.639L217.673 169.471C218.247 169.471 218.815 169.596 219.335 169.839C219.856 170.081 220.317 170.435 220.686 170.875C221.055 171.315 221.323 171.83 221.471 172.385C221.619 172.94 221.644 173.521 221.543 174.086L221.637 174.126L221.29 174.935L221.286 174.943L208.061 205.8C207.76 206.507 207.257 207.109 206.616 207.532C205.975 207.955 205.224 208.18 204.456 208.179ZM217.678 171.247L96.8582 171.415C96.514 171.416 96.175 171.499 95.8696 171.658C95.5642 171.817 95.3014 172.046 95.1033 172.328C94.9051 172.609 94.7774 172.934 94.7309 173.275C94.6843 173.616 94.7203 173.963 94.8358 174.288L105.775 204.976C105.926 205.393 106.201 205.754 106.563 206.009C106.926 206.265 107.358 206.402 107.802 206.404H204.456C204.877 206.404 205.288 206.281 205.638 206.049C205.989 205.817 206.264 205.488 206.429 205.101L219.654 174.243L220.305 174.522L219.654 174.243C219.795 173.916 219.851 173.56 219.82 173.205C219.788 172.851 219.669 172.51 219.473 172.213C219.277 171.916 219.011 171.672 218.698 171.504C218.384 171.335 218.034 171.247 217.678 171.247Z" fill="#3F3D56"/>
<path d="M157.143 214.859C161.323 214.859 164.711 211.471 164.711 207.292C164.711 203.112 161.323 199.724 157.143 199.724C152.963 199.724 149.574 203.112 149.574 207.292C149.574 211.471 152.963 214.859 157.143 214.859Z" fill="white"/>
<path d="M443.045 149.16C447.225 149.16 450.613 145.771 450.613 141.592C450.613 137.412 447.225 134.024 443.045 134.024C438.865 134.024 435.477 137.412 435.477 141.592C435.477 145.771 438.865 149.16 443.045 149.16Z" fill="white"/>
<path d="M729.299 251.364L709.081 231.405C708.097 230.426 706.929 229.65 705.645 229.123C704.36 228.596 702.985 228.328 701.596 228.333H701.525C700.126 228.337 698.742 228.619 697.453 229.161C696.163 229.704 694.994 230.496 694.014 231.494C689.493 236.068 686.922 242.217 686.841 248.648C686.76 255.078 689.175 261.29 693.579 265.977C693.792 266.208 694.014 266.43 694.236 266.652C695.465 267.874 696.823 268.961 698.284 269.893C702.281 272.475 706.942 273.841 711.701 273.826H711.851C715.118 273.815 718.349 273.156 721.359 271.888C724.369 270.62 727.098 268.768 729.387 266.439C731.371 264.426 732.476 261.709 732.46 258.883C732.443 256.057 731.306 253.353 729.299 251.364ZM728.127 265.187C724.373 268.968 719.431 271.34 714.132 271.903C708.834 272.466 703.503 271.185 699.039 268.277C697.762 267.432 696.57 266.465 695.479 265.391C691.122 261.089 688.654 255.233 688.615 249.111C688.577 242.989 690.972 237.102 695.274 232.746C696.092 231.912 697.068 231.25 698.144 230.797C699.22 230.345 700.375 230.111 701.543 230.109H701.596C702.752 230.105 703.898 230.328 704.967 230.767C706.037 231.206 707.009 231.851 707.829 232.666L728.047 252.633C729.72 254.288 730.669 256.54 730.684 258.894C730.699 261.247 729.779 263.511 728.127 265.187Z" fill="#3F3D56"/>
<path d="M662.964 185.859L642.747 165.892C640.757 163.917 638.065 162.813 635.262 162.82H635.2C633.799 162.825 632.413 163.108 631.123 163.652C629.832 164.196 628.662 164.991 627.679 165.989C623.942 169.784 621.519 174.677 620.765 179.949C620.011 185.222 620.965 190.597 623.489 195.288L623.497 195.297C624.538 197.215 625.831 198.986 627.342 200.562C627.511 200.757 627.706 200.952 627.901 201.147C632.544 205.756 638.825 208.335 645.366 208.321H645.526C648.793 208.308 652.024 207.647 655.034 206.378C658.044 205.108 660.772 203.255 663.062 200.926C664.045 199.93 664.822 198.75 665.349 197.454C665.877 196.158 666.143 194.771 666.134 193.372C666.125 191.973 665.84 190.589 665.297 189.3C664.753 188.011 663.96 186.842 662.964 185.859V185.859ZM661.792 199.683C659.667 201.844 657.135 203.564 654.341 204.742C651.548 205.92 648.549 206.533 645.517 206.546H645.366C640.813 206.544 636.363 205.196 632.574 202.672C628.785 200.147 625.828 196.559 624.073 192.358C622.318 188.157 621.845 183.531 622.713 179.062C623.58 174.593 625.75 170.48 628.949 167.241C630.604 165.568 632.856 164.619 635.21 164.604C637.564 164.589 639.827 165.509 641.504 167.161L661.721 187.12C663.394 188.778 664.341 191.031 664.354 193.387C664.367 195.742 663.446 198.006 661.792 199.683L661.792 199.683Z" fill="#3F3D56"/>
<path d="M730.592 257.638L708.303 235.626C706.841 234.186 704.868 233.384 702.816 233.397C700.764 233.409 698.801 234.235 697.357 235.694C695.551 237.518 694.123 239.68 693.153 242.057C692.183 244.434 691.692 246.978 691.706 249.545C691.721 252.112 692.241 254.651 693.238 257.016C694.234 259.382 695.687 261.528 697.513 263.332C699.34 265.135 701.504 266.561 703.882 267.528C706.26 268.495 708.805 268.984 711.372 268.967C713.939 268.949 716.477 268.426 718.842 267.427C721.207 266.428 723.351 264.973 725.153 263.145L730.592 257.638Z" fill="#FF1050"/>
<path d="M664.261 192.13L641.972 170.118C640.51 168.678 638.537 167.876 636.485 167.889C634.433 167.901 632.47 168.727 631.026 170.186C629.22 172.01 627.792 174.172 626.822 176.549C625.852 178.926 625.361 181.47 625.375 184.037C625.39 186.604 625.91 189.143 626.907 191.508C627.903 193.874 629.356 196.02 631.182 197.823C633.009 199.627 635.173 201.053 637.551 202.02C639.929 202.987 642.474 203.476 645.041 203.458C647.608 203.441 650.146 202.918 652.511 201.919C654.875 200.92 657.02 199.465 658.822 197.637L664.261 192.13Z" fill="#FF1050"/>
<path d="M706.098 271.349L705.565 272.751C703.062 271.801 700.635 270.848 698.285 269.892C656.66 252.908 636.789 233.03 623.497 195.297L623.488 195.288C622.858 193.512 622.245 191.695 621.65 189.837L623.053 189.384C623.522 191.171 624.208 192.894 625.095 194.515C625.824 196.584 626.572 198.599 627.342 200.562C639.835 232.408 658.258 250.609 693.579 265.977C695.355 266.75 697.175 267.516 699.039 268.277C701.204 269.687 703.59 270.725 706.098 271.349Z" fill="#3F3D56"/>
<path d="M642.377 206.705L641.128 207.969L687.244 253.513L688.492 252.249L642.377 206.705Z" fill="#3F3D56"/>
<path d="M251.953 168.968L251.977 139.791L234.825 141.324L240.878 159.725L218.905 193.032C217.531 193.34 216.277 194.041 215.295 195.05C214.312 196.059 213.645 197.332 213.374 198.714C213.102 200.096 213.239 201.526 213.767 202.832C214.295 204.137 215.191 205.261 216.347 206.066C217.502 206.87 218.867 207.322 220.275 207.364C221.682 207.407 223.072 207.039 224.274 206.306C225.476 205.572 226.439 204.505 227.045 203.234C227.651 201.963 227.874 200.543 227.687 199.148L251.953 168.968Z" fill="#FFB6B6"/>
</svg>
