<svg width="676" height="546" viewBox="0 0 676 546" fill="none" xmlns="http://www.w3.org/2000/svg">
<g clip-path="url(#clip0_228_279)">
<path opacity="0.1" d="M347.739 546.007C516.457 546.007 653.23 423.779 653.23 273.003C653.23 122.228 516.457 0 347.739 0C179.02 0 42.2471 122.228 42.2471 273.003C42.2471 423.779 179.02 546.007 347.739 546.007Z" fill="#FF1050"/>
<path opacity="0.1" d="M112.64 430.135C174.85 430.135 225.281 422.308 225.281 412.653C225.281 402.997 174.85 395.17 112.64 395.17C50.4309 395.17 0 402.997 0 412.653C0 422.308 50.4309 430.135 112.64 430.135Z" fill="#FF1050"/>
<path opacity="0.1" d="M166.78 513.422C190.976 513.422 210.592 509.365 210.592 504.36C210.592 499.355 190.976 495.297 166.78 495.297C142.583 495.297 122.968 499.355 122.968 504.36C122.968 509.365 142.583 513.422 166.78 513.422Z" fill="#FF1050"/>
<path opacity="0.1" d="M466.148 478.556C490.344 478.556 509.96 474.498 509.96 469.493C509.96 464.488 490.344 460.431 466.148 460.431C441.951 460.431 422.336 464.488 422.336 469.493C422.336 474.498 441.951 478.556 466.148 478.556Z" fill="#FF1050"/>
<path opacity="0.1" d="M317.482 470.949C356.83 470.949 388.727 465.538 388.727 458.863C388.727 452.189 356.83 446.778 317.482 446.778C278.135 446.778 246.237 452.189 246.237 458.863C246.237 465.538 278.135 470.949 317.482 470.949Z" fill="#FF1050"/>
<path opacity="0.1" d="M527.406 422.345C609.476 422.345 676.006 411.91 676.006 399.039C676.006 386.168 609.476 375.734 527.406 375.734C445.336 375.734 378.806 386.168 378.806 399.039C378.806 411.91 445.336 422.345 527.406 422.345Z" fill="#FF1050"/>
<path d="M30.7998 358.363C27.4618 364.865 25.9027 372.136 26.2812 379.438C26.6596 386.739 28.962 393.81 32.9543 399.931C34.2641 401.898 35.4691 403.315 36.4318 403.688C41.0487 405.505 50.2957 409.97 50.2957 409.97L72.5619 401.21C72.5619 401.21 76.1768 382.062 79.5953 365.622C81.9267 354.409 84.1796 344.461 85.1029 342.716C87.4081 338.421 85.1029 291.659 85.1029 291.659C85.1029 291.659 62.8368 290.164 56.7136 307.352L54.0351 312.598L30.7998 358.363Z" fill="#A8A8A8"/>
<path opacity="0.1" d="M60.3611 363.53C73.8976 379.065 79.6082 365.628 79.6082 365.628C81.9396 354.415 84.1924 344.467 85.1158 342.723C87.421 338.428 85.1158 291.666 85.1158 291.666C85.1158 291.666 62.8496 290.171 56.7265 307.358L54.048 312.604C52.3322 326.355 50.636 352.349 60.3611 363.53Z" fill="white"/>
<path d="M63.334 406.829L141.92 397.741L155.941 305.358L145.339 281.364C140.859 271.146 134.657 261.776 127.002 253.665C121.665 248.032 115.214 242.616 108.429 239.894C107.502 239.52 106.556 239.196 105.594 238.924C104.488 238.587 103.319 238.517 102.181 238.719C101.043 238.921 99.9683 239.388 99.0449 240.084C89.3526 246.963 85.8883 276.21 84.7684 290.289C84.3077 296.074 83.5272 301.83 82.4305 307.529L63.334 406.829Z" fill="#A8A8A8"/>
<path opacity="0.1" d="M115.653 304.361L99.2809 344.69C107.86 338.408 120.571 304.198 120.571 304.198L131.96 343.202L122.883 302.093C124.212 293.165 124.598 284.123 124.036 275.115C123.315 264.793 113.643 248.229 108.39 239.888C107.463 239.514 106.517 239.19 105.555 238.917C104.449 238.581 103.279 238.511 102.142 238.712C101.004 238.914 99.9292 239.382 99.0059 240.078C103.132 248.373 113.446 269.115 116.59 275.279C120.578 283.043 115.653 304.361 115.653 304.361Z" fill="white"/>
<path d="M129.02 409.97H171.659C173.413 409.971 175.149 409.614 176.761 408.922C178.373 408.23 179.827 407.216 181.036 405.944C182.245 404.671 183.182 403.165 183.791 401.518C184.401 399.871 184.669 398.118 184.58 396.364C183.637 378.055 181.247 345.412 175.562 324.69C172.491 313.509 168.922 307.64 165.647 304.748C164.112 303.264 162.129 302.331 160.009 302.092C158.4 301.953 156.79 302.345 155.425 303.207C147.507 310.807 138.26 350.802 138.26 350.802L129.02 409.97Z" fill="#A8A8A8"/>
<path opacity="0.1" d="M168.384 374.501C170.139 379.373 170.833 384.993 168.384 390.468L158.882 395.17C158.882 395.17 133.341 384.331 136.445 362.114C136.445 362.114 137.283 357.523 146.079 357.877C151.025 358.117 155.788 359.826 159.761 362.786C163.733 365.747 166.735 369.825 168.384 374.501Z" fill="white"/>
<path opacity="0.1" d="M158.234 316.099C157.939 308.309 162.163 305.607 165.654 304.748C164.118 303.265 162.136 302.331 160.015 302.093C157.585 304.128 155.863 306.884 155.097 309.962L146.19 353.431C146.19 353.431 158.732 329.155 158.234 316.099Z" fill="white"/>
<path d="M117.801 350.474L138.914 379.393L142.575 403.262L129.006 409.97L109.444 414.298C107.56 414.717 105.623 414.844 103.701 414.672L50.3213 409.97L57.584 393.111L82.6661 357.851L117.801 350.474Z" fill="#A8A8A8"/>
<path opacity="0.1" d="M109.628 340.546C109.628 340.546 124.035 341.536 118.626 366.324C113.216 391.111 57.5576 393.098 57.5576 393.098C57.5576 393.098 69.3849 372.114 87.5776 357.077C89.6209 355.392 91.5921 353.635 93.4716 351.759C97.6563 347.569 105.659 340.205 109.628 340.546Z" fill="white"/>
<path opacity="0.1" d="M122.588 359.235C122.588 359.235 142.11 377.025 140.27 404.403L122.588 359.235Z" fill="black"/>
<path opacity="0.1" d="M155.431 303.207C155.431 303.207 134.946 330.487 132.647 372.461L155.431 303.207Z" fill="black"/>
<path opacity="0.1" d="M85.1219 291.646C85.1219 291.646 95.0369 336.729 70.2822 370.711L85.1219 291.646Z" fill="black"/>
<path d="M265.707 458.614H372.545C373.578 458.609 374.592 458.336 375.488 457.822C376.384 457.308 377.132 456.57 377.66 455.681C378.187 454.792 378.476 453.782 378.497 452.748C378.519 451.714 378.274 450.692 377.784 449.781L324.391 350.448C323.88 349.495 323.12 348.7 322.193 348.145C321.266 347.59 320.206 347.298 319.126 347.298C318.046 347.298 316.986 347.59 316.059 348.145C315.132 348.7 314.373 349.495 313.861 350.448L260.442 449.781C259.952 450.694 259.706 451.718 259.729 452.754C259.752 453.79 260.043 454.803 260.573 455.693C261.104 456.582 261.856 457.319 262.755 457.831C263.655 458.343 264.672 458.613 265.707 458.614ZM325.924 440.463H312.328V426.856H325.924V440.463ZM325.924 417.781H312.328V390.56H325.924V417.781Z" fill="#464353"/>
<path opacity="0.1" d="M265.707 458.614H372.545C373.578 458.609 374.592 458.336 375.488 457.822C376.384 457.308 377.132 456.57 377.66 455.681C378.187 454.792 378.476 453.782 378.497 452.748C378.519 451.714 378.274 450.692 377.784 449.781L324.391 350.448C323.88 349.495 323.12 348.7 322.193 348.145C321.266 347.59 320.206 347.298 319.126 347.298C318.046 347.298 316.986 347.59 316.059 348.145C315.132 348.7 314.373 349.495 313.861 350.448L260.442 449.781C259.952 450.694 259.706 451.718 259.729 452.754C259.752 453.79 260.043 454.803 260.573 455.693C261.104 456.582 261.856 457.319 262.755 457.831C263.655 458.343 264.672 458.613 265.707 458.614ZM325.924 440.463H312.328V426.856H325.924V440.463ZM325.924 417.781H312.328V390.56H325.924V417.781Z" fill="black"/>
<path d="M265.707 461.893H372.545C373.578 461.887 374.592 461.614 375.488 461.101C376.384 460.587 377.132 459.849 377.66 458.96C378.187 458.071 378.476 457.06 378.497 456.027C378.519 454.993 378.274 453.971 377.784 453.06L324.391 353.727C323.88 352.774 323.12 351.979 322.193 351.424C321.266 350.869 320.206 350.576 319.126 350.576C318.046 350.576 316.986 350.869 316.059 351.424C315.132 351.979 314.373 352.774 313.861 353.727L260.442 453.06C259.952 453.973 259.706 454.997 259.729 456.033C259.752 457.069 260.043 458.082 260.573 458.971C261.104 459.861 261.856 460.598 262.755 461.11C263.655 461.622 264.672 461.892 265.707 461.893ZM325.924 443.742H312.328V430.135H325.924V443.742ZM325.924 421.059H312.328V393.839H325.924V421.059Z" fill="#464353"/>
<path d="M153.119 155.23C153.047 156.601 153.728 157.853 154.127 159.165C154.788 161.698 154.722 164.366 153.937 166.863C153.204 169.486 151.973 172.26 152.909 174.824C153.125 175.427 153.453 175.978 153.649 176.581C154.461 179.073 152.955 181.696 151.305 183.736L157.782 188.28C158.727 189.065 159.852 189.603 161.056 189.847C162.267 189.992 163.675 189.342 163.924 188.149C164.009 187.742 163.924 187.316 164.003 186.903C164.083 186.369 164.289 185.861 164.604 185.423C164.92 184.985 165.336 184.629 165.817 184.385C166.79 183.907 167.875 183.705 168.954 183.801C172.929 184.018 176.308 186.634 179.923 188.313C182.307 189.346 184.776 190.167 187.304 190.765C188.738 191.139 190.329 191.48 191.626 190.765C192.923 190.051 193.519 188.391 193.42 186.89C193.219 185.396 192.753 183.951 192.045 182.621C191.33 181.293 190.9 179.83 190.781 178.326C190.781 176.122 191.986 174.116 192.392 171.952C192.962 168.876 191.803 165.748 190.388 162.955C188.974 160.161 187.258 157.473 186.57 154.43C186.434 153.508 186.194 152.604 185.856 151.735C185.529 151.075 185.085 150.48 184.547 149.977C182.117 147.571 178.653 146.43 175.26 146.181C171.868 145.931 168.443 146.489 165.077 147.072C163.793 147.256 162.528 147.557 161.298 147.971C159.541 148.67 157.873 149.575 156.328 150.666C154.795 151.728 153.217 153.282 153.119 155.23Z" fill="#464353"/>
<g opacity="0.1">
<path opacity="0.1" d="M190.762 176.981C190.762 177.178 190.762 177.375 190.801 177.565C191.004 175.644 192.013 173.84 192.373 171.919C192.512 171.149 192.554 170.365 192.498 169.584C192.498 169.925 192.432 170.24 192.373 170.607C191.961 172.771 190.736 174.778 190.762 176.981Z" fill="black"/>
<path opacity="0.1" d="M154.566 161.787C154.643 160.461 154.495 159.13 154.127 157.853C153.739 156.858 153.422 155.837 153.178 154.797C153.178 154.935 153.125 155.066 153.119 155.204C153.047 156.574 153.728 157.827 154.127 159.138C154.38 160 154.527 160.89 154.566 161.787Z" fill="black"/>
<path opacity="0.1" d="M193.362 186.529C193.316 187.115 193.133 187.682 192.828 188.184C192.523 188.687 192.105 189.11 191.607 189.421C190.297 190.136 188.718 189.795 187.284 189.421C184.756 188.823 182.286 188 179.904 186.962C176.289 185.29 172.91 182.673 168.934 182.457C167.855 182.361 166.77 182.563 165.797 183.04C165.316 183.285 164.901 183.641 164.585 184.079C164.269 184.517 164.063 185.024 163.983 185.559C163.938 185.972 163.983 186.398 163.905 186.804C163.649 187.998 162.248 188.647 161.036 188.503C159.833 188.259 158.708 187.72 157.762 186.936L151.94 182.844C151.724 183.139 151.508 183.427 151.285 183.696L157.762 188.247C158.708 189.032 159.833 189.57 161.036 189.814C162.248 189.959 163.656 189.309 163.905 188.116C163.99 187.709 163.905 187.283 163.983 186.87C164.063 186.336 164.269 185.828 164.585 185.39C164.901 184.952 165.316 184.596 165.797 184.352C166.77 183.874 167.855 183.672 168.934 183.768C172.91 183.985 176.289 186.601 179.904 188.273C182.286 189.312 184.756 190.135 187.284 190.732C188.718 191.106 190.31 191.447 191.607 190.732C192.903 190.018 193.499 188.359 193.401 186.857C193.394 186.745 193.375 186.641 193.362 186.529Z" fill="black"/>
<path opacity="0.1" d="M153.65 176.548C153.73 176.812 153.79 177.082 153.827 177.355C153.928 176.645 153.868 175.921 153.65 175.237C153.453 174.634 153.126 174.083 152.91 173.479C152.752 173.042 152.651 172.586 152.609 172.122C152.512 173.023 152.615 173.934 152.91 174.791C153.126 175.394 153.453 175.952 153.65 176.548Z" fill="black"/>
</g>
<path d="M161.338 425.374C161.293 425.561 161.187 425.727 161.037 425.846C160.877 425.929 160.698 425.968 160.519 425.958C158.188 426.01 155.856 425.958 153.532 426.122C151.331 426.312 149.124 426.778 146.93 426.528C146.228 426.553 145.536 426.359 144.95 425.972C144.363 425.586 143.911 425.026 143.656 424.371C143.517 424.085 143.395 423.792 143.289 423.492C142.685 421.946 142.38 420.3 142.392 418.64C142.392 418.2 142.392 417.774 142.392 417.328C142.363 416.848 142.3 416.37 142.202 415.899C142.003 415.359 142.027 414.762 142.267 414.239C143.197 412.541 145.444 412.2 147.173 412.069C151.178 411.767 155.206 412.063 159.124 412.948C159.432 414.456 159.779 415.951 160.146 417.446C160.417 418.543 160.705 419.636 161.01 420.725C161.215 421.399 161.382 422.084 161.508 422.777C161.67 423.644 161.611 424.537 161.338 425.374Z" fill="#464353"/>
<path opacity="0.06" d="M161.338 425.374C161.293 425.561 161.187 425.727 161.036 425.846C160.877 425.929 160.698 425.968 160.519 425.958C158.188 426.01 155.856 425.958 153.531 426.122C151.331 426.312 149.124 426.777 146.93 426.528C146.228 426.553 145.536 426.359 144.95 425.972C144.363 425.586 143.911 425.026 143.656 424.371C143.517 424.085 143.395 423.792 143.289 423.492H144.127C146.884 423.492 149.648 423.394 152.405 423.394C153.237 423.394 154.075 423.354 154.9 423.256C155.725 423.158 156.4 423.02 157.153 422.928C158.28 422.82 159.413 422.774 160.545 422.79H161.475C161.646 423.65 161.598 424.538 161.338 425.374Z" fill="black"/>
<path d="M209.571 413.197C208.841 414.05 207.908 414.706 206.859 415.105C202.196 417.072 196.807 416.187 191.993 414.587C190.917 414.187 189.811 413.869 188.686 413.636C187.66 413.492 186.625 413.42 185.589 413.42C184.849 413.42 184.109 413.361 183.368 413.315C181.496 413.197 179.629 413.013 177.769 412.83C176.473 412.734 175.185 412.539 173.918 412.246C173.558 412.154 173.212 412.012 172.89 411.826C172.615 411.705 172.381 411.509 172.214 411.259C172.047 411.009 171.954 410.717 171.947 410.416C172 409.584 172.864 409.105 173.624 408.744C180.363 405.826 187.684 404.561 194.953 403.544C195.693 403.421 196.413 403.2 197.095 402.888C197.914 402.561 197.999 403.098 198.405 403.702C198.597 403.981 198.816 404.24 199.06 404.475C199.849 405.189 200.776 405.734 201.784 406.075C203.552 406.731 205.445 406.908 207.213 407.531C207.748 407.717 208.26 407.963 208.739 408.266C209.162 408.496 209.526 408.821 209.805 409.214C210.083 409.607 210.268 410.059 210.345 410.535C210.422 411.011 210.389 411.498 210.249 411.96C210.11 412.421 209.866 412.844 209.538 413.197H209.571Z" fill="#464353"/>
<path opacity="0.06" d="M209.57 413.197C208.84 414.05 207.908 414.706 206.859 415.105C202.196 417.072 196.806 416.187 191.993 414.587C190.916 414.186 189.811 413.869 188.686 413.636C187.66 413.492 186.625 413.42 185.588 413.42C184.848 413.42 184.108 413.361 183.368 413.315C183.971 412.744 184.586 412.187 185.215 411.649C185.671 411.223 186.195 410.877 186.767 410.626C187.479 410.393 188.237 410.341 188.974 410.475C192.72 410.993 196.086 413.623 199.865 413.394C201.625 413.191 203.328 412.64 204.875 411.774C206.132 411.261 207.253 410.462 208.149 409.439C208.419 409.087 208.625 408.69 208.758 408.266C209.181 408.496 209.546 408.821 209.824 409.214C210.102 409.607 210.287 410.059 210.364 410.535C210.441 411.011 210.409 411.498 210.269 411.96C210.129 412.421 209.885 412.844 209.557 413.197H209.57Z" fill="black"/>
<path d="M208.254 299.233C207.599 300.545 206.761 301.968 205.347 302.374C203.29 302.965 201.313 301.115 200.415 299.174C199.192 296.325 198.962 293.147 199.76 290.151C200.134 288.636 200.703 287.181 201.024 285.659C201.256 284.379 201.396 283.084 201.443 281.784C201.637 279.845 201.591 277.889 201.306 275.961C200.252 270.328 195.412 266.124 193.801 260.59C192.989 257.829 193.028 254.891 193.074 252.013C193.059 251.285 193.134 250.558 193.297 249.849C193.345 249.655 193.411 249.466 193.493 249.285C194.574 246.885 197.776 246.557 200.003 245.16C201.234 244.393 204.03 241.921 205.065 244.176C205.288 244.679 205.455 245.204 205.563 245.744C205.988 247.75 205.818 250.104 205.923 252C206.322 259.16 208.104 266.308 207.279 273.43C207.082 274.644 206.985 275.872 206.99 277.102C207.167 280.184 209.093 282.853 209.977 285.804C211.339 290.243 210.245 295.076 208.254 299.233Z" fill="#FBBEBE"/>
<path opacity="0.1" d="M205.595 245.757C205.109 245.58 204.575 245.58 204.089 245.757L199.655 247.068C198.102 247.483 196.587 248.034 195.13 248.714C194.494 249.027 193.891 249.402 193.329 249.835C193.378 249.642 193.444 249.453 193.526 249.272C194.606 246.871 197.809 246.544 200.035 245.147C201.266 244.38 204.063 241.907 205.097 244.163C205.323 244.674 205.49 245.208 205.595 245.757Z" fill="black"/>
<path d="M205.883 245.258C205.616 245.096 205.315 244.998 205.003 244.973C204.692 244.948 204.379 244.996 204.089 245.114L199.655 246.426C198.102 246.84 196.588 247.391 195.13 248.072C194.357 248.448 193.633 248.92 192.976 249.475C190.906 245.875 190.356 241.606 189.976 237.475C189.767 235.068 189.609 232.655 189.518 230.261C189.415 228.539 189.45 226.811 189.623 225.094C189.871 223.127 190.441 221.205 190.795 219.251C191.005 218.107 191.141 216.951 191.201 215.789C191.371 213.25 191.254 210.701 190.854 208.189C190.473 205.518 189.864 202.886 189.033 200.32C188.614 199.146 188.11 198.011 187.651 196.857L187.494 196.451C186.666 194.335 185.99 192.164 185.471 189.952C185.261 189.047 185.248 188.096 184.554 187.48C185.205 187.401 185.862 187.375 186.518 187.401C186.649 187.401 186.78 187.401 186.911 187.401C189.602 187.571 192.194 188.478 194.403 190.024C197.249 192.08 199.412 194.945 200.612 198.247C201.993 201.939 202.223 205.952 202.399 209.894C202.753 217.64 202.971 225.391 203.054 233.147C203.054 234.635 203.12 236.222 203.971 237.448C204.21 237.75 204.429 238.068 204.626 238.399C204.934 239.055 204.888 239.783 205.137 240.445C205.32 240.843 205.527 241.228 205.759 241.599C206.052 242.161 206.216 242.781 206.237 243.415C206.259 244.048 206.138 244.678 205.883 245.258Z" fill="#464353"/>
<path d="M162.294 168.286C161.639 168.07 160.984 167.84 160.329 167.63L161.691 167.735C161.918 167.888 162.121 168.073 162.294 168.286Z" fill="#FBBEBE"/>
<path d="M189.111 191.952C188.98 192.398 188.849 192.844 188.705 193.264C188.373 194.341 187.968 195.395 187.494 196.418C186.752 198.098 185.701 199.624 184.396 200.916C183.966 201.371 183.437 201.72 182.851 201.939C182.355 202.066 181.842 202.115 181.331 202.084C179.585 202.084 177.839 202.057 176.092 202.005C174.733 202.02 173.376 201.886 172.045 201.605C170.581 201.205 169.188 200.576 167.919 199.742C163.027 196.713 159.006 192.096 157.284 186.627C157.068 185.932 156.917 185.099 157.395 184.555C157.866 184.171 158.458 183.968 159.065 183.985H159.144C160.552 183.801 161.908 183.335 163.132 182.614C163.925 182.208 164.564 181.554 164.953 180.752C165.218 179.801 165.197 178.793 164.894 177.853L163.44 171.243C163.288 170.185 162.891 169.176 162.281 168.299C162.706 168.45 163.132 168.588 163.591 168.706C167.638 169.801 172.065 169.138 176.033 170.575C177.553 171.132 179.072 172.135 179.53 173.696C180.297 176.319 177.736 179.04 178.47 181.663C178.961 183.447 180.775 184.477 182.399 185.309L183.493 185.867L186.525 187.408L186.944 187.618L187.009 187.65C187.965 188.136 188.974 188.739 189.308 189.768C189.45 190.5 189.382 191.258 189.111 191.952Z" fill="#FBBEBE"/>
<path opacity="0.1" d="M197.101 207.349C196.99 209.026 196.582 210.669 195.896 212.202C194.581 214.854 193.876 217.766 193.833 220.727C193.329 229.579 189.969 240.117 194.783 247.554C194.901 247.737 195.019 247.921 195.13 248.111C194.356 248.488 193.633 248.959 192.975 249.514C190.906 245.914 190.356 241.645 189.976 237.514C189.766 235.107 189.609 232.694 189.517 230.301C189.415 228.578 189.45 226.85 189.622 225.133C189.871 223.166 190.441 221.245 190.794 219.291C191.005 218.147 191.141 216.99 191.201 215.828C191.37 213.29 191.254 210.74 190.853 208.228C190.473 205.558 189.864 202.925 189.033 200.359C188.614 199.185 188.109 198.051 187.651 196.897L187.494 196.49C186.752 198.17 185.701 199.696 184.396 200.988C183.965 201.443 183.437 201.793 182.851 202.011C182.355 202.139 181.842 202.187 181.331 202.156C179.585 202.156 177.839 202.129 176.092 202.077C174.733 202.092 173.376 201.958 172.045 201.677C170.581 201.277 169.188 200.649 167.919 199.815C163.027 196.785 159.006 192.169 157.284 186.7C157.068 186.005 156.917 185.172 157.395 184.627C157.866 184.243 158.458 184.041 159.065 184.057H159.144L165.038 191.355C165.714 192.128 166.286 192.986 166.741 193.906C166.828 194.215 167.012 194.489 167.264 194.687C167.469 194.78 167.695 194.821 167.919 194.805C173.453 194.805 180.827 194.805 186.361 194.805C186.379 193.823 186.096 192.859 185.549 192.044C185.379 192.083 185.149 192.096 185.503 191.992C185.183 189.863 184.496 187.806 183.473 185.913C183.412 185.783 183.344 185.656 183.27 185.532C182.83 184.884 182.502 184.165 182.301 183.408C182.999 183.185 183.75 183.185 184.449 183.408C185.254 183.755 185.673 184.627 186.027 185.434C186.328 186.09 186.629 186.791 186.898 187.48C186.898 187.552 186.963 187.631 186.99 187.703C187.561 189.06 187.927 190.494 188.077 191.959C188.116 192.496 188.247 193.178 188.692 193.356C188.762 193.388 188.838 193.405 188.915 193.408C189.376 193.239 189.877 193.211 190.354 193.328C190.831 193.445 191.262 193.701 191.593 194.064C192.238 194.803 192.688 195.691 192.903 196.647C193.116 197.604 193.428 198.536 193.833 199.428C194.678 201.041 193.388 201.762 194.914 202.752C195.627 203.145 196.241 203.697 196.708 204.366C197.14 205.297 197.277 206.338 197.101 207.349Z" fill="black"/>
<path opacity="0.1" d="M159.066 412.974C159.373 414.482 159.721 415.977 160.087 417.472L160.048 417.564C157.055 416.253 153.99 414.882 150.722 414.594C147.69 414.331 144.396 415.151 142.333 417.354C142.305 416.874 142.241 416.396 142.143 415.925C141.945 415.385 141.968 414.788 142.209 414.266C143.139 412.567 145.385 412.226 147.114 412.095C151.119 411.793 155.147 412.089 159.066 412.974Z" fill="black"/>
<path opacity="0.1" d="M184.861 193.244C185.169 193.244 185.058 193.244 184.907 193.296C184.756 193.349 184.508 193.349 184.861 193.244Z" fill="black"/>
<path opacity="0.1" d="M199.092 404.475C196.172 406.339 193.427 408.466 190.893 410.83C190.157 411.618 189.28 412.261 188.306 412.725C187.301 413.049 186.239 413.158 185.189 413.046C181.069 412.879 176.963 412.472 172.89 411.826C172.615 411.705 172.381 411.509 172.214 411.259C172.047 411.009 171.954 410.717 171.947 410.416C172 409.584 172.864 409.105 173.624 408.744C180.363 405.826 187.684 404.561 194.953 403.544C195.693 403.421 196.413 403.2 197.095 402.888C197.914 402.561 197.999 403.098 198.405 403.702C198.607 403.982 198.837 404.242 199.092 404.475Z" fill="black"/>
<path d="M151.043 185.637C152.006 186.496 153.106 187.191 154.082 188.024C156.701 190.247 158.352 193.355 159.976 196.385C159.013 196.734 157.971 196.804 156.97 196.588C156.455 199.498 156.542 202.482 157.225 205.356C155.915 206.256 154.897 207.521 154.298 208.995C153.832 210.491 153.512 212.028 153.342 213.585C152.399 220.41 151.451 227.234 150.499 234.058C150.48 234.726 150.251 235.371 149.845 235.901C149.663 236.048 149.496 236.213 149.347 236.393C149.146 236.834 149.067 237.32 149.118 237.802C149.078 238.281 148.764 238.852 148.286 238.786C148.054 238.73 147.848 238.596 147.703 238.406C147.225 237.899 146.787 237.355 146.393 236.779C142.529 244.203 140.67 252.203 138.626 260.321C137.166 266.105 135.706 271.954 135.633 277.921C135.653 280.744 135.83 283.564 136.164 286.368L136.74 292.125C137.205 296.755 137.67 301.391 138.174 306.02C138.502 308.958 138.829 311.922 139.884 314.69C141.455 318.893 139.713 323.634 140.381 328.08C140.905 331.562 141.947 335.162 140.899 338.52C140.48 339.864 139.746 341.09 139.196 342.389C137.847 345.615 137.709 349.202 137.592 352.697C137.38 355.761 137.494 358.838 137.932 361.878C138.495 365.019 139.759 368.094 139.51 371.268C139.163 375.786 135.837 379.648 135.43 384.16C135.11 387.76 136.688 391.236 138.384 394.429C139.635 396.783 137.893 399.826 137.231 402.416C135.922 407.492 138.102 412.803 140.774 417.308C140.842 417.463 140.963 417.588 141.115 417.662C141.423 417.774 141.698 417.472 141.901 417.217C143.911 414.633 147.474 413.656 150.742 413.938C154.01 414.22 157.068 415.571 160.067 416.908L164.318 407.433C165.038 405.826 165.771 404.088 165.411 402.364C165.156 401.131 164.363 400.088 163.8 398.96C162.49 396.298 162.425 393.196 162.412 390.213L162.333 373.36C165.647 369.189 167.671 364.232 168.948 359.051C170.907 366.338 171.042 373.996 169.341 381.347C169.026 382.458 168.807 383.595 168.686 384.744C168.43 389.419 172.091 393.373 173.067 397.951C173.161 398.301 173.188 398.666 173.145 399.026C173.036 399.469 172.852 399.89 172.602 400.272C170.847 403.459 171.037 407.321 171.292 410.954C175.885 411.755 180.525 412.252 185.182 412.443C186.232 412.548 187.293 412.438 188.299 412.121C189.273 411.656 190.151 411.01 190.886 410.22C193.86 407.419 197.124 404.946 200.624 402.842C198.67 399.595 195.934 396.89 192.668 394.973C193.722 393.419 196.125 393.544 197.527 392.298C198.231 391.601 198.69 390.694 198.837 389.714C199.361 387.144 198.712 384.468 198.064 381.944C196.806 376.973 195.543 371.983 193.48 367.288C192.547 365.358 191.725 363.376 191.017 361.353C189.301 355.7 190.5 349.549 189.203 343.772C188.784 341.923 188.11 340.015 188.581 338.172C189.301 335.333 192.51 333.647 193.218 330.801C195.752 320.67 196.204 310.171 197.645 299.83C197.967 297.855 198.14 295.858 198.162 293.856C198.162 291.764 197.789 289.692 197.638 287.607C197.049 279.259 199.714 270.931 199.033 262.59C198.597 257.45 196.906 252.495 194.108 248.163C189.295 240.721 192.654 230.189 193.159 221.336C193.197 218.376 193.899 215.463 195.215 212.812C195.907 211.28 196.317 209.636 196.427 207.959C196.629 206.925 196.5 205.854 196.06 204.897C195.599 204.226 194.986 203.673 194.272 203.284C192.746 202.287 194.036 201.566 193.191 199.952C192.785 199.061 192.473 198.129 192.262 197.172C192.047 196.217 191.597 195.331 190.952 194.595C190.621 194.232 190.189 193.976 189.712 193.859C189.235 193.742 188.734 193.77 188.273 193.939C187.651 193.939 187.481 193.113 187.428 192.49C187.252 190.208 186.309 188.064 185.385 185.965C185.032 185.159 184.612 184.286 183.807 183.939C183.106 183.719 182.354 183.719 181.652 183.939C181.855 184.699 182.185 185.42 182.628 186.07C183.763 188.064 184.518 190.252 184.855 192.523C184.2 192.719 185.51 192.523 184.855 192.523C185.441 193.341 185.743 194.329 185.713 195.336C180.185 195.336 172.811 195.336 167.278 195.336C167.053 195.354 166.827 195.313 166.623 195.218C166.37 195.018 166.185 194.746 166.092 194.437C165.642 193.516 165.069 192.66 164.39 191.893L157.906 183.886C157.762 183.677 157.572 183.504 157.35 183.381C157.082 183.306 156.799 183.306 156.531 183.381C154.429 183.69 152.877 184.568 151.043 185.637Z" fill="#FF1050"/>
<path opacity="0.1" d="M174.311 294.125C175.429 294.11 176.53 294.395 177.5 294.951C177.982 295.235 178.381 295.639 178.659 296.125C178.937 296.61 179.084 297.159 179.085 297.719C179.013 298.958 178.063 299.942 177.376 300.997C176.95 301.641 176.611 302.337 176.367 303.07C176.292 303.236 176.273 303.423 176.315 303.601C176.393 303.85 176.662 303.974 176.891 304.086C177.724 304.463 178.436 305.066 178.946 305.826C179.456 306.585 179.745 307.473 179.779 308.388C179.72 310.945 177.225 313.017 177.363 315.601C177.425 316.139 177.517 316.673 177.638 317.201C177.937 319.403 177.631 321.645 176.753 323.686C175.961 325.745 174.88 327.68 174.029 329.719C171.73 335.26 171.233 341.398 171.41 347.425C171.547 351.517 170.1 355.412 168.79 359.307C169.53 351.461 169.727 343.573 169.379 335.7C169.288 333.562 169.019 331.542 169.117 329.398C169.275 325.995 171.174 322.9 171.658 319.562C171.933 317.653 171.75 315.712 171.796 313.785C171.888 309.85 172.955 305.968 173.027 302.02C173.119 299.233 172.863 296.361 174.311 294.125Z" fill="black"/>
<path d="M146.983 187.041C145.681 187.691 144.463 188.496 143.355 189.441C142.198 190.592 141.229 191.92 140.487 193.375C139.582 195.025 138.771 196.723 138.057 198.464C137.134 200.72 136.367 203.218 137.003 205.572C137.579 207.703 139.21 209.362 140.336 211.258C141.463 213.153 142.124 215.376 142.988 217.454C144.141 220.228 145.719 222.812 146.859 225.592C147.998 228.373 148.686 231.494 147.966 234.386C147.756 235.238 146.374 235.901 146.374 236.773C146.374 238.216 148.457 239.783 149.839 240.203C151.43 240.694 153.165 239.96 154.469 238.891C156.859 236.996 158.313 234.156 159.387 231.297C161.116 226.707 162.039 221.835 162.871 216.995C163.473 213.441 164.036 209.88 164.357 206.3C164.652 203.074 164.744 199.743 163.892 196.647C163.098 193.807 161.553 191.233 159.42 189.198C157.717 187.559 154.927 185.355 152.452 185.296C150.493 185.29 148.66 186.116 146.983 187.041Z" fill="#464353"/>
<path d="M165.601 266.092C165.53 266.54 165.363 266.967 165.111 267.344C164.858 267.721 164.528 268.039 164.141 268.275C163.368 268.746 162.526 269.091 161.646 269.298C159.891 269.81 158.031 270.282 156.256 269.829C154.861 269.375 153.573 268.641 152.471 267.672L132.641 252.472C131.048 251.341 129.583 250.039 128.273 248.59C127.52 247.654 126.829 246.67 126.203 245.645C125.375 244.472 124.726 243.181 124.278 241.816C124.118 241.215 124.039 240.595 124.042 239.973C124.037 239.385 124.181 238.805 124.461 238.288C124.939 237.488 125.961 237.324 126.799 237.101C129.613 236.372 132.533 236.15 135.424 236.445C135.678 236.433 135.929 236.504 136.139 236.647C136.35 236.79 136.508 236.997 136.59 237.238C137.029 238.045 137.408 238.884 137.801 239.724C138.404 241.155 139.19 242.502 140.139 243.73C141.054 244.726 142.027 245.665 143.053 246.544C145.149 248.511 146.865 250.872 149.098 252.681C151.685 254.773 154.828 256.026 157.775 257.567C160.722 259.108 163.63 261.108 165.11 264.092C165.453 264.701 165.623 265.392 165.601 266.092Z" fill="#FBBEBE"/>
<path opacity="0.1" d="M188.555 160.043C188.556 164.183 186.977 168.167 184.142 171.181C181.306 174.194 177.428 176.009 173.301 176.254C169.174 176.499 165.109 175.157 161.937 172.501C158.765 169.844 156.727 166.075 156.239 161.964C155.75 157.853 156.849 153.71 159.309 150.383C161.77 147.056 165.407 144.796 169.477 144.065C173.546 143.334 177.741 144.187 181.203 146.45C184.666 148.713 187.134 152.215 188.103 156.24C188.404 157.485 188.555 158.762 188.555 160.043Z" fill="black"/>
<path d="M188.555 159.387C188.556 163.528 186.977 167.512 184.142 170.525C181.306 173.538 177.428 175.353 173.301 175.598C169.174 175.844 165.109 174.501 161.937 171.845C158.765 169.189 156.727 165.42 156.239 161.308C155.75 157.197 156.849 153.055 159.309 149.728C161.77 146.4 165.407 144.14 169.477 143.409C173.546 142.678 177.741 143.531 181.203 145.794C184.666 148.057 187.134 151.559 188.103 155.584C188.404 156.829 188.555 158.106 188.555 159.387Z" fill="#FBBEBE"/>
<path opacity="0.1" d="M137.801 239.698C137.055 240.176 135.948 240.019 135.025 239.809C131.383 238.996 127.362 238.412 124.042 239.973C124.037 239.385 124.181 238.805 124.461 238.288C124.939 237.488 125.961 237.324 126.799 237.101C129.613 236.372 132.533 236.15 135.424 236.445C135.678 236.433 135.929 236.504 136.139 236.647C136.35 236.79 136.508 236.997 136.59 237.238C137.029 238.019 137.408 238.858 137.801 239.698Z" fill="black"/>
<path d="M130.958 217.618C130.152 220.241 129.491 222.937 127.912 225.16C127.391 225.744 126.998 226.432 126.76 227.179C126.742 227.731 126.652 228.278 126.491 228.806C126.269 229.251 125.797 229.547 125.607 230.006C125.326 230.661 125.692 231.507 125.319 232.124C125.144 232.371 124.935 232.592 124.697 232.779C123.806 233.606 123.584 234.924 123.564 236.143C123.544 237.363 123.662 238.609 123.263 239.757C126.72 237.691 131.121 238.307 135.051 239.186C136.144 239.429 137.5 239.612 138.207 238.734C138.914 237.855 138.508 236.701 138.607 235.645C138.738 234.268 139.681 233.127 140.264 231.874C140.918 230.465 141.141 228.891 141.645 227.422C142.687 224.333 144.92 221.815 146.354 218.897C146.885 217.893 147.202 216.79 147.284 215.658C147.234 214.19 146.852 212.752 146.164 211.454C144.801 208.432 143.18 205.534 141.318 202.792C140.486 201.566 139.052 199.297 137.762 201.257C136.714 202.838 136.059 204.851 135.286 206.582C133.621 210.169 132.176 213.855 130.958 217.618Z" fill="#464353"/>
<path d="M190.048 192.162C188.082 192.298 186.11 191.992 184.277 191.267C182.444 190.542 180.795 189.416 179.452 187.972C179.226 187.765 179.063 187.5 178.981 187.204C178.943 186.821 179.051 186.437 179.282 186.129C180.068 184.916 181.423 184.116 182.052 182.811C182.681 181.506 182.465 180.004 182.524 178.575C182.628 176.011 183.637 173.473 183.722 170.948C183.752 170.302 183.704 169.655 183.578 169.02C183.277 168.078 183.092 167.103 183.028 166.115C183.113 164.194 184.842 162.699 185.13 160.804C185.503 158.391 183.506 156.292 181.495 154.902C179.962 153.837 178.298 152.976 176.544 152.338C175.467 151.952 174.352 151.681 173.218 151.531C171.103 151.245 168.95 151.486 166.95 152.233C166.123 152.546 165.339 152.965 164.619 153.479C164.19 153.751 163.833 154.122 163.578 154.561C163.368 155.056 163.274 155.592 163.303 156.128C163.263 158.81 163.565 161.663 162.288 163.997C161.633 165.25 160.519 166.266 159.976 167.591C159.753 168.142 159.614 168.723 159.563 169.316C159.498 169.93 159.465 170.547 159.465 171.165C159.426 174.621 159.465 178.267 161.22 181.263C161.839 182.169 162.402 183.113 162.903 184.09C163.146 184.584 163.259 185.132 163.23 185.682C163.202 186.231 163.033 186.765 162.739 187.231C162.385 187.656 161.937 187.992 161.43 188.214C160.129 188.839 158.714 189.188 157.273 189.24C155.832 189.292 154.395 189.046 153.054 188.516C154.623 187.027 155.7 185.094 156.143 182.976C156.585 180.857 156.371 178.653 155.529 176.66C155.056 175.855 154.749 174.963 154.625 174.037C154.691 173.203 154.913 172.389 155.28 171.637C156.178 169.173 156.317 166.496 155.68 163.951C155.28 162.391 154.586 160.883 154.462 159.276C154.358 158.063 154.411 156.842 154.619 155.643C154.978 153.498 155.922 151.493 157.347 149.851C158.772 148.209 160.622 146.993 162.694 146.338C163.028 146.226 163.349 146.122 163.715 146.03C165.304 145.677 166.927 145.503 168.555 145.512C172.189 145.394 175.877 145.289 179.38 146.24C181.437 146.779 183.351 147.764 184.986 149.125C186.147 150.102 187.073 151.328 187.697 152.712C188.038 153.509 188.295 154.34 188.463 155.191C188.614 155.892 188.725 156.6 188.837 157.309C189.629 162.351 190.422 167.493 189.577 172.529C189.243 174.496 188.66 176.463 188.398 178.47C187.763 183.093 188.909 187.69 190.048 192.162Z" fill="#464353"/>
<path d="M166.78 198.641C167.452 198.641 167.998 198.095 167.998 197.421C167.998 196.747 167.452 196.201 166.78 196.201C166.107 196.201 165.562 196.747 165.562 197.421C165.562 198.095 166.107 198.641 166.78 198.641Z" fill="white"/>
<path d="M187.337 198.064C188.01 198.064 188.555 197.518 188.555 196.844C188.555 196.17 188.01 195.624 187.337 195.624C186.664 195.624 186.119 196.17 186.119 196.844C186.119 197.518 186.664 198.064 187.337 198.064Z" fill="white"/>
<path opacity="0.1" d="M166.78 135.78L164.16 130.829C164.326 130.631 164.508 130.447 164.704 130.279C165.082 130.045 165.525 129.939 165.968 129.977L166.78 135.78Z" fill="black"/>
<path opacity="0.1" d="M174.003 129.747L171.036 134.141L169.347 129.321C170.068 129.011 170.848 128.863 171.632 128.888C172.465 129.04 173.266 129.331 174.003 129.747Z" fill="black"/>
<g opacity="0.1">
<path opacity="0.1" d="M162.739 185.932C162.385 186.357 161.937 186.694 161.43 186.916C159.107 188.029 156.458 188.25 153.984 187.539C153.696 187.889 153.385 188.22 153.054 188.529C154.395 189.059 155.832 189.305 157.273 189.253C158.714 189.202 160.129 188.852 161.43 188.228C161.937 188.006 162.385 187.669 162.739 187.244C162.965 186.916 163.119 186.545 163.191 186.154C163.263 185.763 163.252 185.361 163.159 184.975C163.093 185.322 162.95 185.649 162.739 185.932Z" fill="black"/>
<path opacity="0.1" d="M155.634 163.971C155.847 164.83 155.973 165.709 156.007 166.594C156.082 165.271 155.956 163.945 155.634 162.66C155.234 161.099 154.54 159.591 154.415 157.984C154.415 157.781 154.415 157.578 154.383 157.368C154.351 158.01 154.362 158.654 154.415 159.296C154.54 160.902 155.234 162.411 155.634 163.971Z" fill="black"/>
<path opacity="0.1" d="M189.531 172.549C189.809 170.814 189.927 169.058 189.884 167.302C189.861 168.621 189.743 169.936 189.531 171.237C189.197 173.204 188.614 175.172 188.352 177.178C188.217 178.254 188.166 179.34 188.201 180.424C188.219 179.777 188.269 179.132 188.352 178.49C188.614 176.483 189.197 174.535 189.531 172.549Z" fill="black"/>
<path opacity="0.1" d="M155.503 175.362C155.16 174.716 154.883 174.037 154.678 173.335C154.622 173.572 154.596 173.814 154.599 174.057C154.722 174.983 155.03 175.874 155.503 176.68C155.983 177.779 156.261 178.957 156.321 180.155C156.44 178.515 156.159 176.87 155.503 175.362Z" fill="black"/>
<path opacity="0.1" d="M183.578 168.994C183.635 169.294 183.677 169.596 183.702 169.899C183.702 169.801 183.702 169.709 183.702 169.611C183.732 168.965 183.684 168.317 183.558 167.683C183.414 166.994 183.178 166.312 183.067 165.617C183.034 165.773 183.015 165.931 183.008 166.089C183.078 167.077 183.269 168.053 183.578 168.994Z" fill="black"/>
<path opacity="0.1" d="M179.452 186.634C179.351 186.529 179.257 186.417 179.17 186.3C179.009 186.562 178.942 186.872 178.98 187.178C179.062 187.473 179.226 187.739 179.452 187.946C180.795 189.39 182.443 190.516 184.276 191.241C186.11 191.966 188.081 192.271 190.048 192.136C189.936 191.703 189.825 191.277 189.72 190.824C187.808 190.912 185.899 190.583 184.126 189.86C182.353 189.136 180.758 188.036 179.452 186.634Z" fill="black"/>
<path opacity="0.1" d="M185.117 159.558C185.114 159.534 185.114 159.51 185.117 159.486C185.49 157.073 183.493 154.974 181.482 153.584C179.949 152.519 178.285 151.658 176.531 151.02C175.454 150.634 174.339 150.363 173.204 150.213C171.089 149.927 168.937 150.168 166.937 150.915C166.109 151.228 165.326 151.647 164.606 152.161C164.177 152.433 163.82 152.804 163.564 153.243C163.354 153.738 163.26 154.274 163.289 154.81C163.289 155.263 163.289 155.715 163.289 156.174V156.122C163.26 155.585 163.354 155.049 163.564 154.555C163.82 154.115 164.177 153.744 164.606 153.473C165.326 152.958 166.109 152.539 166.937 152.227C168.937 151.48 171.089 151.239 173.204 151.525C174.339 151.675 175.454 151.945 176.531 152.332C178.285 152.969 179.949 153.831 181.482 154.896C183.152 156.023 184.796 157.65 185.117 159.558Z" fill="black"/>
<path opacity="0.1" d="M162.287 162.699C161.633 163.952 160.519 164.968 159.976 166.293C159.753 166.844 159.614 167.425 159.563 168.017C159.498 168.631 159.465 169.249 159.465 169.866C159.465 170.424 159.465 170.988 159.465 171.552C159.465 171.427 159.465 171.303 159.465 171.178C159.465 170.56 159.498 169.943 159.563 169.329C159.614 168.737 159.753 168.155 159.976 167.604C160.519 166.293 161.606 165.263 162.287 164.011C163.342 162.043 163.322 159.781 163.302 157.532C163.389 159.311 163.041 161.085 162.287 162.699Z" fill="black"/>
</g>
<path opacity="0.1" d="M188.418 155.236C188.328 155.365 188.222 155.482 188.103 155.584C187.872 155.774 187.614 155.929 187.337 156.043C185.431 156.869 185.51 154.174 184.515 153.25C183.876 152.778 183.093 152.546 182.301 152.594C180.384 152.498 178.466 152.412 176.545 152.338C173.342 152.22 170.146 152.161 166.951 152.233C165.418 152.259 163.89 152.323 162.366 152.423C160.598 152.541 158.699 152.771 157.193 153.61C156.677 153.894 156.211 154.26 155.811 154.692C155.451 155.086 155.071 155.584 154.573 155.676C154.932 153.53 155.876 151.526 157.301 149.884C158.726 148.242 160.576 147.026 162.648 146.371C166.002 143.869 170.191 142.763 174.341 143.282C178.49 143.801 182.279 145.907 184.914 149.158C186.075 150.135 187.001 151.361 187.625 152.745C187.976 153.545 188.242 154.38 188.418 155.236Z" fill="black"/>
<path d="M187.337 154.732C185.431 155.558 185.51 152.863 184.514 151.938C183.876 151.467 183.093 151.235 182.301 151.282C175.665 150.845 169.009 150.788 162.366 151.112C160.002 151.269 157.409 151.623 155.817 153.381C155.411 153.827 154.986 154.404 154.377 154.384C154.174 153.073 154.029 151.709 153.931 150.364C153.872 149.861 153.898 149.351 154.01 148.856C154.174 148.292 154.547 147.813 154.737 147.263C154.924 146.562 154.99 145.835 154.933 145.112C154.962 142.436 155.68 139.814 157.018 137.498C158.355 135.182 160.268 133.251 162.569 131.892C163.147 131.609 163.682 131.247 164.161 130.816C164.327 130.618 164.508 130.434 164.704 130.265C165.082 130.032 165.525 129.926 165.968 129.964C166.282 129.964 166.623 129.964 166.898 129.964C167.745 129.87 168.573 129.649 169.354 129.308C170.075 128.998 170.855 128.85 171.639 128.875C172.472 129.027 173.273 129.318 174.01 129.734C174.364 129.905 174.735 130.039 175.117 130.134C175.713 130.272 176.328 130.265 176.924 130.384C177.89 130.63 178.806 131.038 179.636 131.59C180.625 132.125 181.541 132.786 182.36 133.557C183.25 134.576 183.963 135.738 184.469 136.994C185.336 138.728 185.995 140.56 186.433 142.449C186.964 145.164 186.702 148.102 187.959 150.568C188.725 152.115 189.426 153.833 187.337 154.732Z" fill="#FED253"/>
<path opacity="0.1" d="M154.141 152.673C154.141 152.673 167.716 140.305 187.933 150.561C187.933 150.561 165.11 145.361 154.141 152.673Z" fill="black"/>
<path d="M6.21481 215.867C4.36803 212.838 1.59131 210.064 2.02353 206.628C7.10545 207.212 11.9254 205.972 16.5817 203.815C21.2379 201.657 25.5602 198.857 29.9217 196.11C31.6375 195.028 33.3467 193.965 35.0495 192.982C37.7476 191.434 40.4261 189.703 43.1701 188.188C47.0994 186.024 51.1073 184.254 55.5212 183.913C56.3207 183.85 57.123 183.83 57.9246 183.854C63.3602 183.959 68.9922 185.421 73.7729 182.981L74.0676 182.824C76.7788 181.336 78.75 178.804 81.0749 176.752C82.7463 175.304 84.5661 174.038 86.5039 172.975C90.0337 171.007 93.8583 169.434 97.4667 167.578C98.3903 167.101 99.2673 166.539 100.086 165.899L100.702 165.407L100.839 165.289C100.99 165.165 101.141 165.04 101.285 164.909L101.566 164.66L101.854 164.397L102.077 164.188L102.437 163.847L102.477 163.801L103.046 163.237L103.276 163.007L103.675 162.594L103.911 162.358C104.31 161.945 104.71 161.525 105.116 161.119C105.522 160.712 106.072 160.161 106.563 159.709L107.035 159.289L107.172 159.171L107.552 158.856L107.729 158.705L108.102 158.417L108.285 158.273C108.469 158.135 108.659 158.004 108.849 157.873C109.023 157.751 109.207 157.644 109.399 157.551L108.174 154.581L111.697 153.125L160.29 271.193L156.76 272.649L128.967 205.107L128.77 205.303C122.332 211.665 114.445 216.364 105.79 218.995H105.738C100.898 220.458 95.4824 221.494 91.409 224.209C89.9646 225.149 88.7095 226.352 87.7089 227.756C86.7527 229.12 86.0848 230.674 85.0893 231.986C84.8994 232.229 84.6899 232.465 84.4803 232.688C83.2893 233.87 81.9715 234.917 80.551 235.809L79.9288 236.235C75.7095 239.208 71.3136 241.921 66.7656 244.36C64.1411 245.728 61.4046 246.869 58.5861 247.77C56.5363 248.426 54.421 248.904 52.3712 249.554C50.9924 249.972 49.6533 250.511 48.3699 251.167C44.899 252.983 42.2336 255.829 39.7123 258.865C37.5053 261.528 35.4096 264.347 32.9866 266.774C31.4672 268.282 29.1555 269.711 27.3218 268.826L26.9485 268.61C27.0075 268.511 27.0533 268.413 27.1057 268.308C28.553 265.272 26.7717 261.521 24.3748 259.088C24.1259 258.832 23.8705 258.583 23.6086 258.347C23.3466 258.111 22.8751 257.691 22.5018 257.364C20.452 255.6 18.2713 253.96 16.8502 251.685C15.7655 249.773 15.0293 247.684 14.6759 245.514C14.0211 242.425 13.5823 239.245 11.9058 236.616C10.8056 234.878 9.16834 233.396 7.97645 231.73C7.22303 230.745 6.72776 229.586 6.5357 228.36C6.2672 226.228 7.25607 224.143 7.62936 222.018C7.74041 221.44 7.78654 220.85 7.76689 220.261C7.63008 218.688 7.09598 217.176 6.21481 215.867Z" fill="url(#paint0_linear_228_279)"/>
<path d="M155.525 271.636L158.994 270.204L111.211 154.121L107.742 155.552L155.525 271.636Z" fill="#D6D8E1"/>
<path d="M13.0783 236.202C14.7221 238.793 15.1608 241.914 15.7961 244.95C16.1484 247.084 16.8733 249.14 17.9376 251.022C19.339 253.259 21.4805 254.872 23.491 256.603C23.8577 256.924 24.2245 257.259 24.5781 257.573C24.8335 257.803 25.0889 258.052 25.3312 258.295C27.6888 260.688 29.4374 264.38 28.0163 267.364C27.9726 267.465 27.9223 267.564 27.8656 267.659C27.9807 267.737 28.1011 267.807 28.2258 267.869C30.0333 268.747 32.3058 267.344 33.7989 265.856C36.1827 263.469 38.2456 260.701 40.4133 258.085C42.8887 255.095 45.5148 252.295 48.9268 250.511C50.1863 249.865 51.5014 249.334 52.8561 248.924C54.8666 248.268 56.9492 247.803 58.9662 247.173C61.7367 246.286 64.427 245.165 67.0082 243.822C71.4873 241.422 75.8175 238.752 79.975 235.829L80.5906 235.409C81.9866 234.533 83.2823 233.506 84.4544 232.347C84.6639 232.124 84.867 231.894 85.0569 231.651C86.0654 230.34 86.7268 228.838 87.6764 227.494C88.6612 226.113 89.8964 224.93 91.3176 224.005C95.3255 221.336 100.643 220.314 105.404 218.877H105.457C113.964 216.286 121.717 211.666 128.05 205.415C128.575 204.976 128.967 204.399 129.183 203.749C129.386 202.825 128.888 201.907 128.41 201.093C127.854 200.136 127.31 199.179 126.773 198.208C124.358 193.807 122.202 189.268 120.316 184.614C119.903 183.591 119.504 182.575 119.118 181.545C118.126 178.922 117.223 176.262 116.406 173.565C116.138 172.673 115.876 171.775 115.627 170.876C115.581 170.706 115.529 170.522 115.483 170.325C114.396 165.952 112.942 155.715 108.463 158.778C107.13 159.731 105.891 160.809 104.762 161.997C103.891 162.883 103.04 163.794 102.143 164.673C101.412 165.392 100.64 166.069 99.8311 166.699C99.01 167.329 98.1332 167.882 97.2116 168.352C93.6555 170.175 89.8965 171.703 86.4321 173.657C84.5244 174.701 82.733 175.945 81.0883 177.368C78.8027 179.388 76.8642 181.88 74.1989 183.342L73.9107 183.5C69.2086 185.893 63.6748 184.457 58.3244 184.352C57.5381 184.332 56.7512 184.352 55.9668 184.411C51.6249 184.739 47.6563 186.483 43.8187 188.614C41.1205 190.11 38.4879 191.801 35.8356 193.329C34.1591 194.293 32.4826 195.336 30.793 196.405C26.51 199.106 22.1681 201.939 17.6953 203.985C13.1111 206.071 8.37623 207.316 3.37944 206.746C2.95377 210.123 5.6781 212.851 7.49868 215.828C8.3731 217.108 8.90316 218.592 9.03766 220.136C9.06173 220.714 9.01998 221.293 8.91323 221.861C8.5465 223.953 7.60346 225.999 7.83922 228.104C8.02506 229.304 8.50923 230.438 9.24723 231.402C10.3867 233.035 11.9912 234.497 13.0783 236.202Z" fill="#F86D70"/>
<path d="M146.223 249.862C146.223 249.862 151.96 254.872 157.776 257.541C163.591 260.21 159.74 269.784 159.74 269.784C159.74 269.784 153.578 271.2 149.262 265.193C144.946 259.187 146.223 249.862 146.223 249.862Z" fill="#FBBEBE"/>
<path d="M455.356 335.143C455.356 335.143 440.162 355.163 427.556 355.327C414.949 355.491 407.549 363.76 413.535 368.927C419.52 374.094 484.747 365.976 484.747 365.976C484.747 365.976 485.362 341.372 479.711 337.779C474.059 334.185 455.356 335.143 455.356 335.143Z" fill="#444176"/>
<path d="M618.717 359.176C618.717 359.176 621.042 375.032 613.858 385.845C606.674 396.659 626.838 400.829 626.838 400.829C626.838 400.829 641.488 404.915 642.555 390.423C643.623 375.93 643.275 364.848 641.9 363.668C640.525 362.487 639.379 354.336 639.379 354.336L618.717 359.176Z" fill="#444176"/>
<path d="M388.721 389.124C388.721 389.124 388.19 337.838 438.872 316.991L450.64 294.571L456.286 280.8C458.33 275.813 461.546 271.392 465.66 267.915C469.775 264.438 474.667 262.006 479.92 260.826L489.05 258.773L491.872 246.865C493.376 240.5 496.708 234.714 501.457 230.223C506.207 225.732 512.165 222.732 518.598 221.592C524.149 220.56 529.783 220.034 535.429 220.018C537.927 220.056 540.373 220.74 542.529 222.004C544.685 223.268 546.478 225.069 547.734 227.232C547.734 227.232 595.75 226.701 597.879 252.878C597.879 252.878 602.686 276.912 609.621 281.187C609.621 281.187 621.356 278.518 633.092 295.614L645.895 339.418C645.895 339.418 679.504 370.934 669.366 399.747C669.366 399.747 655.496 419.512 585.076 406.154C585.076 406.154 509.855 429.105 469.816 397.629C469.809 397.669 403.128 410.489 388.721 389.124Z" fill="#A8A8A8"/>
<path opacity="0.1" d="M422.33 381.111C422.33 381.111 433.005 366.153 432.468 355.464C431.931 344.775 434.983 318.742 434.983 318.742" stroke="black" stroke-miterlimit="10"/>
<path opacity="0.1" d="M461.275 341.044C461.275 341.044 471.943 321.28 470.876 310.598C470.876 310.598 482.081 290.269 490.614 291.896" stroke="black" stroke-miterlimit="10"/>
<path opacity="0.1" d="M519.96 284.951C519.96 284.951 549.299 274.269 550.903 265.724" stroke="black" stroke-miterlimit="10"/>
<path opacity="0.1" d="M530.628 309.529C530.628 309.529 561.571 295.64 561.571 291.896H577.033C577.033 291.896 599.443 321.28 596.778 334.1" stroke="black" stroke-miterlimit="10"/>
<path opacity="0.1" d="M566.909 330.893C566.909 330.893 537.033 328.755 526.359 337.306C515.684 345.857 496.483 350.126 496.483 350.126C496.483 350.126 485.278 374.166 481.008 378.435C476.738 382.704 469.803 397.669 469.803 397.669" stroke="black" stroke-miterlimit="10"/>
<path opacity="0.1" d="M566.909 359.209C566.909 359.209 570.105 370.422 574.375 376.835C578.645 383.249 585.043 406.213 585.043 406.213" stroke="black" stroke-miterlimit="10"/>
<path opacity="0.1" d="M617.054 391.793C617.054 391.793 623.825 410.659 629.778 410.843" stroke="black" stroke-miterlimit="10"/>
<path opacity="0.1" d="M572.698 310.814C572.698 310.814 590.288 315.575 597.643 327.109C604.997 338.644 627.46 349.103 627.46 349.103" stroke="black" stroke-miterlimit="10"/>
<path opacity="0.1" d="M580.242 253.986C580.242 253.986 580.242 278.558 587.177 278.558C594.113 278.558 609.588 281.226 609.588 281.226" stroke="black" stroke-miterlimit="10"/>
<path opacity="0.1" d="M546.254 224.805C546.254 224.805 544.479 267.252 535.409 278.243" stroke="black" stroke-miterlimit="10"/>
<g opacity="0.05">
<path opacity="0.05" d="M644.794 338.907L631.991 295.102C620.256 278.007 608.52 280.676 608.52 280.676C601.585 276.4 596.785 252.36 596.785 252.36C594.65 226.183 546.633 226.72 546.633 226.72C545.375 224.554 543.578 222.75 541.417 221.486C539.256 220.222 536.805 219.54 534.302 219.507C532.036 219.507 529.718 219.579 527.399 219.769C528.709 219.9 529.964 220.086 531.165 220.327L534.898 226.74C534.898 226.74 582.908 226.202 585.042 252.38C585.042 252.38 589.849 276.42 596.785 280.695C596.785 280.695 608.52 278.02 620.256 295.122L633.059 338.926C633.059 338.926 666.668 370.442 656.53 399.256C656.53 399.256 649.686 409.007 621.218 410.187C659.601 411.597 668.266 399.256 668.266 399.256C678.403 370.422 644.794 338.907 644.794 338.907Z" fill="black"/>
<path opacity="0.05" d="M457.006 397.131C445.713 399.166 434.293 400.417 422.827 400.875C436.193 401.387 450.097 399.938 459.055 398.705C458.361 398.174 457.68 397.662 457.006 397.131Z" fill="black"/>
<path opacity="0.05" d="M572.239 405.682C555.815 410.294 538.909 412.97 521.865 413.656C546.456 414.548 569.751 409.413 579.351 406.947C577.033 406.561 574.682 406.121 572.239 405.682Z" fill="black"/>
</g>
<path d="M145.941 489.002C145.941 489.002 160.617 488.549 165.038 485.395C169.458 482.241 187.605 478.477 188.705 483.533C189.806 488.589 210.755 508.681 194.187 508.819C177.618 508.956 155.699 506.235 151.285 503.54C146.871 500.845 145.941 489.002 145.941 489.002Z" fill="#A8A8A8"/>
<path opacity="0.2" d="M194.488 507.055C177.92 507.193 155.994 504.471 151.58 501.809C148.22 499.756 146.878 492.399 146.433 489.008H145.941C145.941 489.008 146.871 500.858 151.285 503.547C155.699 506.235 177.625 508.957 194.187 508.825C198.974 508.786 200.624 507.081 200.533 504.556C199.871 506.078 198.044 507.029 194.488 507.055Z" fill="black"/>
<path d="M503.732 452.149C503.732 452.149 486.449 448.686 481.846 444.07C477.242 439.453 456.501 431.387 454.196 437.151C451.891 442.916 423.096 462.529 442.677 466.005C462.258 469.48 488.755 470.595 494.518 468.313C500.281 466.031 503.732 452.149 503.732 452.149Z" fill="#A8A8A8"/>
<path opacity="0.2" d="M442.677 463.828C462.265 467.283 488.755 468.418 494.518 466.129C498.899 464.372 501.951 455.932 503.156 452.004L503.732 452.129C503.732 452.129 500.275 465.965 494.518 468.274C488.762 470.582 462.265 469.428 442.677 465.965C437.026 464.969 435.408 462.621 436.017 459.657C436.502 461.611 438.473 463.1 442.677 463.828Z" fill="black"/>
<path opacity="0.1" d="M338.249 75.3132H334.136C334.9 75.3132 335.633 75.0093 336.173 74.4681C336.714 73.927 337.017 73.1932 337.017 72.4279C337.017 71.6627 336.714 70.9288 336.173 70.3877C335.633 69.8466 334.9 69.5426 334.136 69.5426H300.815C300.051 69.5426 299.318 69.8466 298.778 70.3877C298.237 70.9288 297.934 71.6627 297.934 72.4279C297.934 73.1932 298.237 73.927 298.778 74.4681C299.318 75.0093 300.051 75.3132 300.815 75.3132H304.928C304.188 75.3486 303.491 75.6676 302.98 76.2043C302.469 76.7409 302.184 77.4538 302.184 78.1953C302.184 78.9367 302.469 79.6497 302.98 80.1863C303.491 80.7229 304.188 81.042 304.928 81.0773H299.172C298.407 81.0773 297.674 81.3813 297.134 81.9224C296.594 82.4635 296.29 83.1974 296.29 83.9626C296.29 84.7279 296.594 85.4618 297.134 86.0029C297.674 86.544 298.407 86.8479 299.172 86.8479H332.492C333.256 86.8479 333.989 86.544 334.53 86.0029C335.07 85.4618 335.374 84.7279 335.374 83.9626C335.374 83.1974 335.07 82.4635 334.53 81.9224C333.989 81.3813 333.256 81.0773 332.492 81.0773H338.249C338.638 81.0959 339.027 81.0352 339.393 80.8987C339.758 80.7623 340.092 80.553 340.374 80.2835C340.657 80.0141 340.881 79.6901 341.035 79.3311C341.188 78.9722 341.267 78.5858 341.267 78.1953C341.267 77.8048 341.188 77.4184 341.035 77.0594C340.881 76.7005 340.657 76.3764 340.374 76.107C340.092 75.8375 339.758 75.6283 339.393 75.4918C339.027 75.3554 338.638 75.2946 338.249 75.3132Z" fill="#FF1050"/>
<path opacity="0.1" d="M467.667 176.83H463.554C464.294 176.795 464.992 176.476 465.503 175.939C466.014 175.403 466.299 174.69 466.299 173.948C466.299 173.207 466.014 172.494 465.503 171.957C464.992 171.421 464.294 171.102 463.554 171.066H430.201C429.812 171.048 429.422 171.109 429.057 171.245C428.692 171.381 428.358 171.591 428.075 171.86C427.793 172.13 427.568 172.454 427.415 172.813C427.261 173.172 427.182 173.558 427.182 173.948C427.182 174.339 427.261 174.725 427.415 175.084C427.568 175.443 427.793 175.767 428.075 176.037C428.358 176.306 428.692 176.515 429.057 176.652C429.422 176.788 429.812 176.849 430.201 176.83H434.314C433.574 176.866 432.876 177.185 432.366 177.721C431.855 178.258 431.57 178.971 431.57 179.712C431.57 180.454 431.855 181.167 432.366 181.704C432.876 182.24 433.574 182.559 434.314 182.595H428.557C427.793 182.595 427.06 182.899 426.52 183.44C425.979 183.981 425.676 184.715 425.676 185.48C425.676 186.245 425.979 186.979 426.52 187.52C427.06 188.061 427.793 188.365 428.557 188.365H461.871C462.636 188.365 463.369 188.061 463.909 187.52C464.449 186.979 464.753 186.245 464.753 185.48C464.753 184.715 464.449 183.981 463.909 183.44C463.369 182.899 462.636 182.595 461.871 182.595H467.667C468.057 182.613 468.446 182.552 468.811 182.416C469.177 182.28 469.511 182.07 469.793 181.801C470.075 181.531 470.3 181.207 470.453 180.848C470.607 180.489 470.686 180.103 470.686 179.712C470.686 179.322 470.607 178.936 470.453 178.577C470.3 178.218 470.075 177.894 469.793 177.624C469.511 177.355 469.177 177.145 468.811 177.009C468.446 176.873 468.057 176.812 467.667 176.83Z" fill="#FF1050"/>
<path opacity="0.1" d="M275.898 158.05H271.785C272.174 158.068 272.564 158.008 272.929 157.871C273.294 157.735 273.628 157.525 273.911 157.256C274.193 156.986 274.417 156.662 274.571 156.304C274.725 155.945 274.804 155.558 274.804 155.168C274.804 154.777 274.725 154.391 274.571 154.032C274.417 153.673 274.193 153.349 273.911 153.079C273.628 152.81 273.294 152.601 272.929 152.464C272.564 152.328 272.174 152.267 271.785 152.286H238.458C238.068 152.267 237.679 152.328 237.313 152.464C236.948 152.601 236.614 152.81 236.332 153.079C236.05 153.349 235.825 153.673 235.671 154.032C235.518 154.391 235.439 154.777 235.439 155.168C235.439 155.558 235.518 155.945 235.671 156.304C235.825 156.662 236.05 156.986 236.332 157.256C236.614 157.525 236.948 157.735 237.313 157.871C237.679 158.008 238.068 158.068 238.458 158.05H242.57C242.181 158.031 241.792 158.092 241.426 158.228C241.061 158.365 240.727 158.574 240.445 158.843C240.162 159.113 239.938 159.437 239.784 159.796C239.631 160.155 239.551 160.541 239.551 160.932C239.551 161.322 239.631 161.709 239.784 162.068C239.938 162.427 240.162 162.751 240.445 163.02C240.727 163.289 241.061 163.499 241.426 163.635C241.792 163.772 242.181 163.832 242.57 163.814H236.807C236.043 163.814 235.31 164.118 234.77 164.659C234.229 165.2 233.926 165.934 233.926 166.699C233.926 167.464 234.229 168.198 234.77 168.739C235.31 169.28 236.043 169.584 236.807 169.584H270.128C270.892 169.584 271.625 169.28 272.166 168.739C272.706 168.198 273.009 167.464 273.009 166.699C273.009 165.934 272.706 165.2 272.166 164.659C271.625 164.118 270.892 163.814 270.128 163.814H275.884C276.274 163.832 276.663 163.772 277.029 163.635C277.394 163.499 277.728 163.289 278.01 163.02C278.292 162.751 278.517 162.427 278.671 162.068C278.824 161.709 278.903 161.322 278.903 160.932C278.903 160.541 278.824 160.155 278.671 159.796C278.517 159.437 278.292 159.113 278.01 158.843C277.728 158.574 277.394 158.365 277.029 158.228C276.663 158.092 276.274 158.031 275.884 158.05H275.898Z" fill="#FF1050"/>
</g>
<defs>
<linearGradient id="paint0_linear_228_279" x1="-474962" y1="42976.2" x2="-513243" y2="42976.2" gradientUnits="userSpaceOnUse">
<stop stop-color="#808080" stop-opacity="0.25"/>
<stop offset="0.54" stop-color="#808080" stop-opacity="0.12"/>
<stop offset="1" stop-color="#808080" stop-opacity="0.1"/>
</linearGradient>
<clipPath id="clip0_228_279">
<rect width="676" height="546" fill="white"/>
</clipPath>
</defs>
</svg>
