<svg width="728" height="692" viewBox="0 0 728 692" fill="none" xmlns="http://www.w3.org/2000/svg">
<path d="M621.693 463.961C597.658 500.42 556.449 521.85 512.781 521.85H150.34C77.49 521.85 36.639 436.674 83.885 388.712C131.13 340.749 89.3995 299.785 162.273 261.324C232.873 224.063 256.977 303.488 322.016 251.518C387.055 199.55 481.744 204.452 502.549 257.402C523.351 310.352 518.45 328.986 562.574 340.752C606.699 352.516 649.843 419.194 623.368 461.358C622.817 462.236 622.258 463.104 621.693 463.961Z" fill="#CBD5FC"/>
<path d="M605.58 478.742C567.399 481.98 541.66 553.55 446.21 510.532C446.21 510.532 456.691 479.289 503.643 459.813C550.592 440.338 605.58 478.742 605.58 478.742Z" fill="#C8DDF5"/>
<path d="M459.245 505.173C469.209 499.992 479.546 495.525 490.102 491.64C492.728 490.631 495.391 489.723 498.063 488.838C500.722 487.917 503.416 487.101 506.106 486.269C508.787 485.405 511.515 484.704 514.235 483.966C515.595 483.604 516.95 483.22 518.318 482.877L522.428 481.891L526.549 480.946L530.698 480.129L534.849 479.314C536.233 479.049 537.63 478.843 539.025 478.63C541.816 478.219 544.596 477.75 547.408 477.482C550.216 477.191 553.008 476.785 555.833 476.68C567.077 475.864 578.447 476.048 589.534 477.925C578.304 477.653 567.169 478.318 556.125 479.679L554.053 479.914L551.99 480.231L547.862 480.834C545.105 481.187 542.375 481.74 539.639 482.235C538.274 482.502 536.898 482.694 535.535 482.978L531.45 483.825L527.366 484.675L523.306 485.648L519.236 486.578C517.883 486.902 516.539 487.269 515.19 487.611L511.146 488.657C509.796 488.999 508.466 489.417 507.119 489.771C504.431 490.508 501.738 491.229 499.075 492.058C496.409 492.869 493.724 493.629 491.066 494.482C480.408 497.802 469.844 501.458 459.245 505.173Z" fill="#ACBED3"/>
<path d="M610.254 356.944C563.666 390.246 585.217 501.848 429.746 519.421C429.746 519.421 419.367 471.277 464.83 410.423C510.293 349.569 610.254 356.944 610.254 356.944Z" fill="#6C83DC"/>
<path d="M440.09 505.974C446.871 491.284 455.24 477.312 464.656 464.087C474.044 450.834 484.571 438.363 496.036 426.813C507.516 415.286 519.954 404.654 533.414 395.477C546.832 386.303 561.308 378.409 576.749 373.49C562.418 381.005 549.139 389.937 536.526 399.733C523.961 409.583 512.079 420.266 500.823 431.58C489.557 442.892 478.942 454.848 468.838 467.263C458.767 479.712 449.3 492.671 440.09 505.974Z" fill="#C8DDF5"/>
<path d="M107.69 468.795C145.55 474.714 166.184 547.919 264.425 511.728C264.425 511.728 256.17 479.824 210.709 457.092C165.246 434.359 107.69 468.795 107.69 468.795Z" fill="#C8DDF5"/>
<path d="M251.801 505.465C241.49 501.014 231.21 496.623 220.811 492.559C218.22 491.522 215.596 490.575 212.993 489.578C210.395 488.563 207.759 487.655 205.131 486.731C203.812 486.283 202.515 485.772 201.193 485.336L197.232 484.008C195.91 483.571 194.596 483.111 193.269 482.692L189.275 481.477L185.294 480.221L181.279 479.086L177.263 477.952C175.924 477.573 174.564 477.285 173.223 476.922C170.527 476.236 167.843 475.492 165.118 474.946L161.042 474.054L159.007 473.592L156.957 473.213C146.037 471.076 134.975 469.629 123.754 469.109C134.946 468.02 146.301 468.635 157.459 470.241C160.27 470.545 163.026 471.145 165.807 471.635C168.592 472.101 171.333 472.764 174.088 473.371C175.464 473.68 176.843 473.984 178.206 474.346L182.288 475.452L186.37 476.559L190.415 477.791L194.446 479.065C195.785 479.502 197.11 479.982 198.441 480.438C201.102 481.365 203.774 482.259 206.388 483.308C209.013 484.328 211.643 485.331 214.231 486.438C216.833 487.508 219.425 488.601 221.975 489.793C232.23 494.412 242.227 499.595 251.801 505.465Z" fill="#ACBED3"/>
<path d="M132.857 351.819C174.809 386.519 146.899 490.912 293.162 517.985C293.162 517.985 306.228 473.024 267.188 412.27C228.148 351.516 132.857 351.819 132.857 351.819Z" fill="#6C83DC"/>
<path d="M284.253 504.542C276.347 491.338 268.208 478.439 259.473 465.977C250.702 453.545 241.434 441.508 231.513 430.033C221.6 418.555 211.061 407.629 199.827 397.431C188.543 387.284 176.579 377.9 163.524 369.753C177.868 375.39 191.1 383.821 203.231 393.406C215.406 402.995 226.503 413.909 236.622 425.617C246.726 437.342 255.871 449.887 263.868 463.102C271.895 476.292 278.868 490.125 284.253 504.542Z" fill="#C8DDF5"/>
<path d="M379.569 449.003C374.317 455.24 369.558 465.579 366.604 467.221C363.65 468.862 358.669 469.432 353.961 484.584C349.254 499.734 373.018 497.66 373.018 497.66C373.018 497.66 383.18 491.824 387.283 477.725L397.458 468.698L379.569 449.003Z" fill="#FFA498"/>
<path d="M361.186 495.999C361.186 495.999 368.878 493.494 375.402 486.604C381.95 479.687 382.795 467.38 382.795 467.38L385.931 473.241L392.205 466.536L395.229 466.244L397.459 468.698L387.283 477.725C383.18 491.824 373.019 497.661 373.019 497.661C373.019 497.661 366.468 498.228 360.927 496.578C361.069 496.22 361.186 495.999 361.186 495.999Z" fill="#C57E75"/>
<path d="M415.197 394.739C407.918 400.06 403.575 403.921 399.956 411.159C396.336 418.398 373.654 444.404 372.207 446.724C370.758 449.043 384.954 473.655 396.315 479.687C396.315 479.687 413.468 459.9 423.361 452.421C433.254 444.94 429.877 418.398 425.292 409.47C420.707 400.542 415.197 394.739 415.197 394.739Z" fill="#DC466F"/>
<path d="M414.932 442.63V427.856C414.932 427.856 416.857 427.085 418.36 432.071C418.959 434.066 418.914 436.164 418.646 437.969L429.69 429.664C430.146 438.961 428.654 448.42 423.361 452.421C413.468 459.9 396.316 479.687 396.316 479.687C393.384 478.131 390.265 475.334 387.274 472.006C394.259 465.052 407.51 451.628 414.932 442.63Z" fill="#D12050"/>
<path d="M344.368 491.824C342.479 492.414 341.084 493.317 341.084 495.696C341.084 498.076 341.494 501.851 342.397 503.327C343.3 504.805 347.96 505.69 347.96 505.69C347.96 505.69 347.649 495.86 346.664 494.055C345.679 492.249 344.368 491.824 344.368 491.824Z" fill="#FFA498"/>
<path d="M342.396 503.328C342.142 502.913 341.931 502.306 341.753 501.609C342.764 502.604 343.104 502.611 344.342 502.741L347.881 503.845C347.936 504.951 347.959 505.691 347.959 505.691C347.959 505.691 343.298 504.805 342.396 503.328" fill="#C57E75"/>
<path d="M348.879 488.229C346.581 488.475 344.283 490.199 344.283 492.578C344.283 494.957 343.463 501.605 344.283 502.672C345.104 503.738 349.125 506.774 350.52 507.021C351.915 507.267 354.284 506.856 353.961 506.117C353.638 505.38 348.879 488.229 348.879 488.229Z" fill="#FFA498"/>
<path d="M343.935 500.885C345.677 502.852 350.131 502.675 350.131 502.675C350.131 502.675 352.089 504.766 352.331 505.438C352.477 505.843 353.279 506.378 353.388 506.791C352.652 507.071 351.395 507.176 350.52 507.022C349.152 506.779 345.268 503.861 344.343 502.742L343.935 500.89V500.885Z" fill="#C57E75"/>
<path d="M357.488 484.303C350.438 484.701 349.125 485.357 348.879 488.229C348.633 491.101 348.797 499.471 349.699 501.606C350.603 503.738 351.094 505.626 352.244 506.774C353.392 507.923 355.112 507.928 355.112 507.928C355.112 507.928 358.972 502.262 359.137 497.502C359.3 492.743 357.488 484.303 357.488 484.303Z" fill="#FFA498"/>
<path d="M353.433 503.212C353.791 501.264 354.584 499.186 354.685 492.663C354.722 490.213 356.995 503.009 355.98 506.521C355.475 507.393 355.111 507.928 355.111 507.928C355.111 507.928 353.393 507.923 352.244 506.774C351.095 505.625 350.603 503.737 349.7 501.605C349.641 501.465 349.586 501.298 349.533 501.11C349.993 502.307 351.454 503.092 353.433 503.212Z" fill="#C57E75"/>
<path d="M372.923 498.733C372.48 502.654 367.343 504.066 366.768 506.035C366.195 508.005 366.604 509.811 365.62 510.302C364.635 510.796 360.532 508.498 360.697 505.873C360.697 505.873 359.629 508.088 357.249 508.498C354.87 508.908 354.295 507.17 354.706 504.551C355.116 501.933 355.035 500.537 354.952 497.42C354.87 494.301 354.131 491.43 355.526 487.982C356.921 484.537 358.809 481.5 362.584 482.075C366.358 482.649 368.656 487.408 370.707 489.05C372.759 490.69 373.415 494.384 372.923 498.733Z" fill="#FFA498"/>
<path d="M360.696 505.872C360.926 500.885 361.186 496.803 361.186 495.999C361.186 495.194 360.926 489.901 362.807 489.58C363.093 489.531 367.23 492.153 367.311 493.922C367.391 495.692 367.311 498.87 366.025 499.774C364.737 500.68 360.696 505.872 360.696 505.872Z" fill="#C57E75"/>
<path d="M531.702 405.368C524.222 395.878 521.648 394.912 513.927 390.409C506.205 385.904 476.928 374.483 470.895 373.035C464.863 371.587 440.534 382.928 432.55 386.547C424.568 390.167 414.409 393.728 412.679 397.256C406.884 409.064 418.36 425.798 418.42 460.867C418.452 479.233 422.637 520.536 422.637 520.536C422.637 520.536 514.57 520.708 515.857 518.777C517.144 516.846 520.362 450.893 521.97 437.38C523.579 423.868 531.702 405.368 531.702 405.368Z" fill="#DC466F"/>
<path d="M413.016 415.744C412.326 413.523 411.918 411.262 411.572 408.993C411.258 406.718 411.01 404.435 411.045 402.11C411.736 404.33 412.145 406.591 412.487 408.861C412.8 411.136 413.048 413.419 413.016 415.744Z" fill="#D12050"/>
<path d="M447.394 401.93C443.842 400.603 435.427 402.911 433.889 403.446C432.35 403.981 434.794 397.406 435.698 396.592C436.603 395.777 438.052 393.881 440.826 394.739C443.601 395.597 445.933 398.773 446.335 399.819C446.737 400.864 447.394 401.93 447.394 401.93Z" fill="#D12050"/>
<path d="M476.99 407.419C475.723 407.359 468.333 403.961 466.564 403.116C464.795 402.271 456.778 401.877 451.396 403.381C451.396 403.381 461.759 396.38 467.791 396.44C473.822 396.501 476.116 398.672 476.597 400.603C477.08 402.533 476.99 407.419 476.99 407.419Z" fill="#D12050"/>
<path d="M437.469 505.747C438.456 504.781 498.496 506.713 499.703 500.439C500.908 494.166 501.739 482.755 501.739 482.755C494.511 486.617 484.018 485.009 484.018 485.009C491.015 482.724 501.15 471.242 501.632 467.864C503.12 457.457 497.559 428.766 497.559 428.766L501.632 420.57L506.399 417.915C506.399 417.915 515.436 422.416 523.163 430.695C522.642 432.987 522.224 435.245 521.97 437.38C520.454 450.12 517.507 509.463 516.097 517.829C497.501 518.515 463.79 519.749 441.234 520.524C430.305 520.55 422.636 520.536 422.636 520.536C422.636 520.536 422.496 515.103 422.167 507.312C428.459 506.945 436.858 506.345 437.469 505.747Z" fill="#D12050"/>
<path d="M449.662 403.678C456.14 402.898 466.552 397.284 470.655 399.215C474.757 401.145 475.721 406.091 476.566 406.936C477.41 407.78 481.03 403.557 481.03 393.183C481.03 382.806 481.348 372.182 473.709 370.739C466.07 369.294 446.284 376.774 442.302 379.79C438.322 382.806 436.632 385.862 435.547 388.798C434.46 391.734 431.565 403.557 432.892 403.678C434.219 403.8 437.959 396.078 440.734 395.836C443.509 395.595 447.908 403.89 449.662 403.678Z" fill="#DC466F"/>
<path d="M445.976 394.39C444.324 390.469 442.515 387.03 442.575 384.316C442.636 381.6 443.239 379.731 446.256 378.887C449.271 378.042 450.538 379.67 450.719 383.773C450.9 387.874 445.976 394.39 445.976 394.39Z" fill="#D12050"/>
<path d="M469.627 387.079C475.933 381.36 476.647 374.965 476.055 373.638C475.462 372.311 472.858 371.345 472.858 371.345C472.858 371.345 471.833 375.508 472.436 376.534C473.038 377.558 469.627 387.079 469.627 387.079Z" fill="#D12050"/>
<path d="M459.588 400.909C461.125 400.218 462.728 399.681 464.364 399.236C466.006 398.837 467.694 398.518 469.447 398.632C470.312 398.697 471.242 398.886 472.015 399.498C472.698 400.142 473.216 400.724 473.797 401.385C474.945 402.69 475.737 404.274 476.465 405.763C476.626 406.106 476.88 406.51 476.992 406.546C477.006 406.551 476.999 406.572 477.13 406.49C477.239 406.414 477.365 406.282 477.481 406.138C477.951 405.536 478.336 404.785 478.712 404.053C479.472 402.61 479.879 401.008 480.203 399.378C480.517 397.747 480.698 396.082 480.815 394.413C480.959 392.743 481.007 391.065 481.029 389.382C481.361 392.732 481.366 396.125 480.901 399.496C480.677 401.176 480.255 402.873 479.497 404.439C479.123 405.207 478.742 405.966 478.188 406.7C478.041 406.882 477.883 407.065 477.65 407.234C477.538 407.318 477.385 407.397 477.202 407.441C477.01 407.487 476.78 407.456 476.609 407.375C476.264 407.202 476.118 406.97 475.977 406.773C475.844 406.571 475.739 406.373 475.64 406.179C474.91 404.651 474.187 403.191 473.124 401.944C472.617 401.326 472.021 400.645 471.498 400.119C470.951 399.664 470.168 399.438 469.377 399.339C467.771 399.148 466.093 399.371 464.462 399.678C462.816 399.967 461.197 400.415 459.588 400.909Z" fill="#D12050"/>
<path d="M444.734 398.744C444.035 398.125 443.34 397.507 442.581 396.993C442.207 396.736 441.824 396.49 441.428 396.321C441.229 396.245 441.036 396.185 440.856 396.162C440.777 396.171 440.692 396.163 440.629 396.184C440.57 396.222 440.535 396.207 440.421 396.292C438.865 397.251 437.655 398.569 436.626 400.077C436.103 400.805 435.646 401.638 435.029 402.393C434.721 402.767 434.394 403.13 433.977 403.453C433.76 403.603 433.54 403.778 433.151 403.824C432.964 403.856 432.704 403.775 432.547 403.635C432.389 403.492 432.309 403.327 432.264 403.188C432.094 402.616 432.148 402.141 432.194 401.656C432.253 401.181 432.337 400.715 432.444 400.257C432.675 399.343 432.931 398.446 433.258 397.569C433.133 398.495 432.967 399.41 432.891 400.331C432.84 400.789 432.804 401.246 432.797 401.696C432.795 402.134 432.804 402.615 432.937 402.928C432.965 403.007 433.01 403.049 433.025 403.06C433.048 403.058 433.025 403.067 433.071 403.054C433.149 403.046 433.331 402.942 433.478 402.814C433.786 402.553 434.076 402.211 434.34 401.853C434.884 401.152 435.321 400.343 435.867 399.551C436.415 398.775 437.016 398.025 437.714 397.356C438.41 396.689 439.217 396.117 440.05 395.676C440.127 395.623 440.321 395.553 440.479 395.508C440.638 395.477 440.794 395.494 440.943 395.503C441.224 395.56 441.467 395.66 441.692 395.779C442.129 396.027 442.504 396.327 442.861 396.642C443.552 397.294 444.187 397.984 444.734 398.744Z" fill="#D12050"/>
<path d="M445.091 370.822C445.105 373.371 445.207 375.913 445.471 378.449C446.122 384.67 445.485 392.875 445.977 394.389C446.526 396.078 449.783 402.11 449.783 402.11C449.783 402.11 455.574 399.456 457.987 396.561C460.399 393.666 463.536 393.518 467.759 389.248C471.983 384.978 474.853 378.196 473.912 372.551C473.792 371.828 473.051 364.602 472.886 357.122C472.723 349.642 464.863 343.958 457.384 343.958C449.904 343.958 445.425 355.057 445.191 362.538C445.095 365.607 445.078 368.491 445.091 370.822Z" fill="#FFA498"/>
<path d="M472.886 357.122C473.051 364.603 473.791 371.829 473.912 372.552C474.203 374.297 474.128 376.152 473.762 378.006C472.107 378.311 450.805 378.825 445.285 376.255C445.159 374.448 445.102 372.637 445.091 370.822C445.078 368.491 445.095 365.608 445.191 362.539C445.291 359.368 446.155 355.549 447.685 352.198L465.209 345.987C469.511 348.282 472.782 352.328 472.886 357.122Z" fill="#C57E75"/>
<path d="M431.968 325.975C420.649 325.975 416.414 334.67 416.414 341.185C416.414 347.034 418.288 356.396 431.968 356.396C438.808 356.396 443.439 349.586 443.439 341.185C443.439 332.785 438.808 325.975 431.968 325.975Z" fill="#524787"/>
<path d="M431.468 329.7C422.921 329.7 419.723 336.265 419.723 341.186C419.723 345.601 421.138 352.672 431.468 352.672C436.634 352.672 440.131 347.53 440.131 341.186C440.131 334.842 436.634 329.7 431.468 329.7Z" fill="#38295C"/>
<path d="M417.689 331.109C418.357 335.074 420.32 336.591 421.197 341.937C422.074 347.283 419.735 355.053 423.222 361.82C426.711 368.587 432.35 377.483 435.608 377.859C438.866 378.235 464.96 373.827 473.764 356.319C476.292 351.293 481.693 331.585 477.071 319.552C472.449 307.519 464.93 296.492 447.553 296.157C430.177 295.823 414.144 310.09 417.689 331.109Z" fill="#FFA498"/>
<path d="M432.221 352.788C433.15 352.809 434.168 352.455 434.627 351.847C435.027 351.314 435.194 350.612 435.076 349.956C433.718 351.075 432.052 351.267 430.38 350.976C430.173 352.223 431.135 352.762 432.221 352.788Z" fill="#C57E75"/>
<path d="M462.96 331.109C462.298 326.984 459.542 324.603 459.542 324.603C459.542 324.603 452.9 321.846 447.763 321.345C442.624 320.844 437.361 319.34 437.361 319.34C437.361 319.34 438.991 323.465 441.747 325.224C441.747 325.224 429.467 324.603 425.582 320.969C425.582 320.969 426.334 323.964 427.086 325.975C427.086 325.975 421.071 325.354 419.192 322.974C419.192 322.974 417.688 328.217 417.688 331.109C417.688 331.109 410.462 321.219 412.3 313.367C414.137 305.514 416.643 302.506 416.643 302.506C416.643 302.506 411.464 303.007 408.623 302.506C408.623 302.506 415.307 296.658 420.32 292.816C425.332 288.972 440.369 288.806 440.369 288.806C440.369 288.806 439.199 284.796 440.535 278.447C440.535 278.447 446.968 287.887 453.777 290.769C460.586 293.651 459.668 293.407 466.888 295.228C474.107 297.05 480.969 301.671 483.851 305.555C486.733 309.44 489.867 313.45 491.746 314.077C491.746 314.077 487.234 313.45 484.98 311.57C484.98 311.57 488.74 320.113 483.769 331.109C478.798 342.104 466.342 338.851 463.927 336.423C461.513 333.996 462.96 331.109 462.96 331.109Z" fill="#4375F1"/>
<path d="M463.927 336.424C461.513 333.997 462.96 331.109 462.96 331.109C462.56 328.614 461.394 326.762 460.535 325.684C462.342 314.726 461.605 303.352 458.396 292.72C460.272 293.482 461.385 293.824 464.101 294.522C467.435 299.536 469.927 305.178 471.644 310.893C473.83 318.171 474.888 326.032 472.849 333.353C472.327 335.229 471.565 337.06 470.6 338.774C467.509 338.515 464.902 337.404 463.927 336.424Z" fill="#9A4234"/>
<path d="M467.329 327.025C467.329 327.025 468.189 299.541 453.778 290.77C453.778 290.77 464.93 289.517 471.321 300.669C477.711 311.822 477.28 321.387 477.119 326.748C476.957 332.108 467.329 327.025 467.329 327.025Z" fill="#524787"/>
<path d="M471.722 325.975C483.041 325.975 487.277 334.67 487.277 341.185C487.277 347.034 485.402 356.396 471.722 356.396C464.882 356.396 460.252 349.586 460.252 341.185C460.252 332.785 464.882 325.975 471.722 325.975Z" fill="#524787"/>
<path d="M465.62 341.186C465.62 333.729 470.543 327.683 476.615 327.683C482.688 327.683 487.276 333.729 487.276 341.186C487.276 348.644 482.688 354.69 476.615 354.69C470.543 354.69 465.62 348.644 465.62 341.186Z" fill="#C22373"/>
<path d="M470.584 341.185C470.584 336.11 473.934 331.996 478.067 331.996C482.199 331.996 485.55 336.11 485.55 341.185C485.55 346.261 482.199 350.375 478.067 350.375C473.934 350.375 470.584 346.261 470.584 341.185Z" fill="#D67AA8"/>
<path d="M443.032 356.396C439.974 358.08 429.983 358.642 429.304 358.548C428.624 358.455 430.019 366.041 432.466 366.321C434.913 366.603 439.807 365.947 441.846 363.982C443.884 362.018 443.032 356.396 443.032 356.396Z" fill="#C57E75"/>
<path d="M441.684 338.262C441.684 336.878 442.366 335.756 443.208 335.756C444.051 335.756 444.734 336.878 444.734 338.262C444.734 339.646 444.051 340.768 443.208 340.768C442.366 340.768 441.684 339.646 441.684 338.262Z" fill="#471052"/>
<path d="M424.239 339.431C424.239 338.047 424.826 336.925 425.55 336.925C426.274 336.925 426.861 338.047 426.861 339.431C426.861 340.815 426.274 341.937 425.55 341.937C424.826 341.937 424.239 340.815 424.239 339.431Z" fill="#471052"/>
<path d="M450.221 328.491C449.179 327.918 448.057 327.522 446.906 327.191C445.75 326.881 444.551 326.699 443.334 326.655C442.125 326.595 440.845 326.561 439.673 327.014C438.499 327.419 437.433 328.157 436.649 329.129L436.738 329.279C437.997 329.143 439.037 328.834 440.134 328.688C441.207 328.527 442.248 328.136 443.369 328.045C445.588 327.857 447.913 328.032 450.15 328.65L450.221 328.491Z" fill="#471052"/>
<path d="M419.829 331.73C420.374 331.519 420.946 331.387 421.515 331.322C422.082 331.245 422.65 331.217 423.212 331.211C423.779 331.202 424.342 331.405 424.894 331.27C425.173 331.207 425.458 331.153 425.748 331.032C426.041 330.933 426.339 330.803 426.66 330.579L426.677 330.406C426.132 329.874 425.515 329.646 424.888 329.533C424.255 329.413 423.629 329.668 423.021 329.834C422.409 329.994 421.811 330.207 421.248 330.495C420.695 330.801 420.154 331.122 419.723 331.594L419.829 331.73Z" fill="#471052"/>
<path d="M437.469 511.694C437.477 512.082 436.933 512.643 435.607 512.643H393.761C388.936 512.643 387.81 510.735 389.258 508.322C390.706 505.908 396.819 500.6 411.939 496.9C427.06 493.2 435.011 501.852 437.469 505.747C439.272 508.605 437.469 511.694 437.469 511.694Z" fill="#524787"/>
<path d="M388.902 509.046C389.734 511.813 421.663 510.371 421.663 510.371C421.663 510.371 418.425 505.997 414.847 505.872C411.267 505.747 409.526 506.991 404.727 507.817C399.927 508.642 403.485 505.864 403.485 505.864C403.485 505.864 400.094 505.112 398.714 504.042C398.714 504.042 406.623 501.706 409.941 501.162C413.258 500.62 421.704 500.981 422.789 501.162C423.557 501.29 427.455 499.027 432.163 500.163C434.793 502.084 436.532 504.26 437.47 505.747C439.273 508.604 437.47 511.693 437.47 511.693C437.476 512.081 436.933 512.643 435.607 512.643H393.762C389.432 512.643 388.088 511.104 388.902 509.046Z" fill="#38295C"/>
<path d="M525.469 485.531C525.469 485.531 495.712 490.132 479.583 493.019C464.303 495.753 451.11 496.941 447.37 496.215C443.63 495.492 430.841 490.787 426.738 489.098C422.637 487.409 414.432 486.443 410.211 487.771C405.987 489.098 402.529 490.546 400.839 490.546C399.151 490.546 399.473 493.281 401.725 493.843C403.977 494.406 405.987 494.327 405.987 494.327C405.987 494.327 398.346 498.509 396.979 498.911C395.612 499.312 397.232 501.805 399.082 501.645C399.082 501.645 397.462 502.61 398.025 503.575C398.589 504.54 402.609 504.54 402.609 504.54C402.609 504.54 397.703 506.954 401.805 507.919C405.908 508.883 410.813 504.299 412.825 503.897C414.835 503.494 419.5 503.737 421.752 505.426C424.004 507.114 433.656 514.917 446.846 510.252C446.846 510.252 536.379 513.879 545.307 513.879C554.234 513.879 559.627 505.989 556.763 490.787C553.902 475.585 548.351 464.245 548.351 464.245L517.466 466.416L525.469 485.531Z" fill="#FFA498"/>
<path d="M413.037 491.909C413.825 491.723 414.454 491.615 414.847 491.59C414.847 491.59 414.083 491.722 413.037 491.909Z" fill="#C57E75"/>
<path d="M405.987 494.326C405.987 494.326 403.977 494.406 401.725 493.843C401.091 493.685 400.617 493.352 400.29 492.959C402.795 494.067 405.878 493.36 407.567 492.958C408.632 492.704 411.248 492.227 413.037 491.91C411.245 492.33 408.621 493.152 405.987 494.326Z" fill="#C57E75"/>
<path d="M406.381 497.945C406.574 497.857 406.738 497.789 406.843 497.756C406.843 497.756 406.67 497.826 406.381 497.945Z" fill="#C57E75"/>
<path d="M396.995 500.702C397.023 500.728 397.907 501.507 399.766 500.697C401.314 500.024 405.072 498.481 406.382 497.945C404.734 498.693 400.27 501.213 399.082 501.645C398.26 501.716 397.484 501.263 396.995 500.702Z" fill="#C57E75"/>
<path d="M401.616 503.656C402.982 503.253 405.838 501.523 407.587 500.697C409.337 499.87 411.569 499.775 411.569 499.775C411.569 499.775 410.906 499.835 409.155 500.697C407.407 501.559 402.609 504.54 402.609 504.54C402.609 504.54 400.029 504.539 398.713 504.042C398.727 504.042 400.254 504.056 401.616 503.656" fill="#C57E75"/>
<path d="M427.073 505.626C429.605 507.195 437.086 509.246 441.55 508.402C446.014 507.557 446.979 503.817 446.979 503.817L448.227 507.839C448.227 507.839 510.319 509.609 522.947 509.04C535.43 508.479 554.9 508.195 557.443 500.697C556.745 509.401 552.03 513.879 545.307 513.879C536.379 513.879 446.846 510.252 446.846 510.252C433.656 514.917 424.005 507.114 421.752 505.426C419.88 504.021 416.345 503.619 414.048 503.755H414.049C417.474 502.555 424.539 504.058 427.073 505.626Z" fill="#C57E75"/>
<path d="M525.469 485.531C525.469 485.531 537.102 483.95 539.435 483.709L537.665 476.47L522.947 479.446L525.469 485.531Z" fill="#C57E75"/>
<path d="M556.56 465.268C556.998 466.402 556.72 467.675 555.85 468.523C550.444 473.803 543.346 480.994 536.046 482.1C528.083 483.306 514.812 483.789 514.087 482.1C513.364 480.411 510.71 458.936 505.884 448.078C501.058 437.22 497.921 431.67 496.714 425.396C495.509 419.122 506.366 404.403 511.193 403.196C516.019 401.99 527.119 401.266 531.702 405.369C536.287 409.47 539.666 425.155 544.974 436.979C549.258 446.519 554.641 460.301 556.56 465.268Z" fill="#DC466F"/>
<path d="M526.693 402.986C525.214 402.815 523.738 402.693 522.258 402.66C520.781 402.601 519.304 402.606 517.833 402.692C516.364 402.781 514.902 402.929 513.462 403.188C512.738 403.303 512.028 403.47 511.316 403.63C510.654 403.871 509.97 404.047 509.36 404.429C508.712 404.72 508.148 405.178 507.552 405.575C507.011 406.053 506.431 406.487 505.936 407.023C504.875 408.02 503.983 409.19 503.076 410.345C502.193 411.52 501.391 412.761 500.629 414.028C499.843 415.284 499.146 416.591 498.467 417.914C499.464 415.107 500.843 412.438 502.496 409.935C503.337 408.693 504.249 407.487 505.315 406.407C505.816 405.838 506.43 405.373 506.997 404.864C507.629 404.43 508.223 403.94 508.932 403.611C509.596 403.209 510.363 403.006 511.099 402.754C511.839 402.599 512.573 402.423 513.321 402.327C514.812 402.113 516.313 401.972 517.812 401.986C520.807 401.978 523.8 402.269 526.693 402.986Z" fill="#D12050"/>
<path d="M550.535 469.713C550.495 465.858 542.354 430.513 535.162 410.813C538.22 417.544 541.077 428.299 544.973 436.978C549.257 446.518 554.64 460.301 556.56 465.267C556.997 466.401 556.719 467.675 555.851 468.523C553.78 470.545 551.459 472.847 548.976 474.98C549.163 474.799 550.572 473.313 550.535 469.713Z" fill="#D12050"/>
<path d="M162.405 429.895C162.258 431.084 162.507 432.283 163.084 433.333C165.19 437.162 166.257 441.563 166.12 445.931C166.028 448.81 165.437 451.755 166.221 454.527C167.573 459.309 172.62 462.266 174.244 466.962C175.684 471.126 174.345 476.361 177.337 479.594C178.079 480.395 179.23 481.009 180.245 480.603C180.753 480.399 181.135 479.974 181.497 479.563C184.928 475.666 188.601 470.931 187.543 465.849C186.548 461.074 181.627 457.847 180.695 453.06C179.933 449.149 181.933 444.637 179.691 441.342C179.073 440.432 178.188 439.737 177.513 438.869C174.847 435.447 175.835 429.992 172.763 426.929C171.763 425.93 170.51 425.364 169.144 425.072C165.925 424.384 162.809 426.627 162.405 429.894V429.895Z" fill="#D35E5A"/>
<path d="M181.916 490.562C182.122 488.016 182.21 485.468 182.305 482.914C182.189 480.367 182.053 477.82 181.835 475.274C181.617 472.729 181.331 470.184 180.881 467.654C180.423 465.14 179.819 462.571 178.762 460.207C176.914 455.536 175.421 450.651 173.912 445.81L171.723 438.513C170.824 436.129 169.946 433.74 169.098 431.334C169.47 433.866 170.049 436.35 170.557 438.854L172.75 446.167C174.268 451.033 175.748 455.888 177.641 460.675C178.664 462.964 179.23 465.386 179.685 467.866C180.126 470.343 180.408 472.857 180.625 475.377C180.837 477.899 180.985 480.43 181.082 482.964L181.916 490.562Z" fill="#FFA8A5"/>
<path d="M168.47 438.939C168.891 439.575 169.431 440.052 170.012 440.473C170.311 440.673 170.661 440.804 170.986 440.968C171.316 441.126 171.604 441.339 171.872 441.58L171.988 441.686L172.091 441.528C172.334 441.155 172.629 440.811 172.862 440.434C173.087 440.054 173.322 439.68 173.522 439.287C173.911 438.496 174.199 437.655 174.346 436.745L174.274 436.709C173.637 437.377 173.143 438.114 172.747 438.902C172.554 439.299 172.399 439.713 172.232 440.121C172.072 440.535 171.976 440.979 171.827 441.396L172.047 441.344C171.737 441.159 171.447 440.947 171.2 440.678C170.947 440.417 170.72 440.121 170.441 439.896C169.868 439.465 169.254 439.09 168.519 438.876L168.47 438.939Z" fill="#FFA8A5"/>
<path d="M169.089 447.647C169.527 448.008 169.978 448.397 170.451 448.723C170.922 449.057 171.402 449.379 171.92 449.638C172.444 449.89 173 450.089 173.504 450.374C174.011 450.654 174.473 451.007 174.924 451.374L175.084 451.504L175.245 451.293C175.942 450.378 176.54 449.406 177.104 448.416C177.635 447.405 178.107 446.362 178.446 445.244L178.376 445.205C177.594 446.073 176.945 447.016 176.353 447.991C175.795 448.985 175.27 449.998 174.847 451.068L175.167 450.987C174.638 450.741 174.118 450.482 173.641 450.153C173.162 449.828 172.733 449.421 172.271 449.067C171.804 448.721 171.294 448.442 170.773 448.183C170.246 447.93 169.723 447.685 169.106 447.568L169.089 447.647Z" fill="#FFA8A5"/>
<path d="M172.183 459.139C172.663 459.622 173.198 459.979 173.749 460.301C174.294 460.636 174.892 460.859 175.529 461.008C176.165 461.163 176.739 461.443 177.251 461.835C177.763 462.223 178.263 462.65 178.774 462.986L179.16 463.239L179.448 462.808C179.871 462.174 180.255 461.519 180.554 460.815C180.854 460.114 181.119 459.392 181.268 458.608L181.179 458.559C180.595 459.105 180.129 459.715 179.696 460.344C179.263 460.972 178.914 461.648 178.606 462.346L179.279 462.168C178.695 461.847 178.075 461.661 177.46 461.446C176.846 461.235 176.286 460.93 175.78 460.51C175.278 460.083 174.728 459.746 174.124 459.525C173.524 459.293 172.904 459.104 172.226 459.048L172.183 459.139Z" fill="#FFA8A5"/>
<path d="M185.968 491.06C187.958 490.733 195.42 488.346 194.9 486.397C192.662 478.033 190.425 468.544 198.172 464.453C201.9 462.485 206.579 461.484 208.702 457.842C210.889 454.09 209.279 449.321 207.317 445.448C205.354 441.574 202.992 437.428 203.833 433.167C204.714 428.707 208.933 425.415 209.607 420.918C210.528 414.778 204.566 409.831 198.839 407.434C196.891 406.618 194.749 405.921 192.696 406.417C191.23 406.77 189.958 407.711 188.953 408.835C184.93 413.334 185.094 420.122 186.012 426.087C186.93 432.052 188.336 438.351 186.089 443.953C184.493 447.931 181.077 451.673 181.992 455.861C182.358 457.539 183.404 459.002 183.804 460.672C184.878 465.174 181.139 469.23 179.424 473.529C177.213 479.077 178.731 485.856 182.924 490.066C183.721 490.866 184.851 491.243 185.968 491.06Z" fill="#FF7571"/>
<path d="M185.263 491.153C185.724 487.842 186.185 484.543 186.775 481.268C186.915 480.449 187.087 479.634 187.219 478.815C187.343 477.996 187.417 477.169 187.553 476.351C187.8 474.712 188.075 473.078 188.388 471.455C189.02 468.21 189.776 464.979 190.885 461.908C191.441 460.378 192.102 458.881 192.972 457.591C193.406 456.948 193.916 456.377 194.482 455.992C195.228 455.503 195.939 454.872 196.495 454.12C197.643 452.6 197.989 450.667 197.948 448.927C197.909 447.162 197.575 445.476 197.202 443.831C196.435 440.546 195.47 437.374 194.933 434.143C194.388 430.928 194.281 427.635 195.131 424.551C195.391 423.798 195.597 423.032 195.845 422.266C196.097 421.503 196.426 420.762 196.796 420.036C197.539 418.584 198.509 417.232 199.583 415.946C198.267 416.979 197.045 418.173 196.027 419.554C195.515 420.24 195.036 420.963 194.629 421.73C194.208 422.489 193.851 423.297 193.665 424.15C192.737 427.525 192.869 431.058 193.434 434.393C193.993 437.745 194.975 440.967 195.722 444.171C196.086 445.772 196.396 447.38 196.429 448.952C196.462 450.518 196.159 452.048 195.274 453.218C194.836 453.804 194.287 454.302 193.641 454.727C192.826 455.285 192.222 455.995 191.722 456.728C190.728 458.205 190.043 459.789 189.458 461.386C188.303 464.588 187.54 467.872 186.897 471.166C186.579 472.814 186.301 474.468 186.05 476.125C185.937 476.955 185.782 477.778 185.682 478.611C185.597 479.444 185.56 480.283 185.506 481.12C185.325 484.466 185.201 487.809 185.263 491.153Z" fill="#FFA8A5"/>
<path d="M198.483 425.868C197.91 426.068 197.43 426.402 196.984 426.758C196.544 427.12 196.122 427.505 195.812 427.991C195.498 428.473 195.218 428.982 194.815 429.378C194.428 429.789 193.96 430.122 193.512 430.483L194.102 430.52C193.903 430.091 193.657 429.69 193.433 429.278C193.2 428.871 192.967 428.466 192.692 428.088C192.434 427.7 192.138 427.335 191.858 426.964C191.574 426.591 191.256 426.247 190.999 425.852L190.899 425.869C190.878 426.39 191.035 426.874 191.195 427.331C191.369 427.785 191.564 428.225 191.8 428.641C192.02 429.066 192.299 429.452 192.581 429.835C192.872 430.213 193.149 430.595 193.482 430.946L193.852 431.334L194.073 430.983C194.375 430.504 194.666 430.006 195.043 429.588C195.403 429.157 195.895 428.845 196.359 428.514C196.825 428.185 197.193 427.765 197.554 427.338C197.913 426.905 198.247 426.46 198.547 425.947L198.483 425.868Z" fill="#FFA8A5"/>
<path d="M191.247 438.532C191.484 439.102 191.793 439.622 192.138 440.109C192.491 440.59 192.858 441.059 193.279 441.478C193.71 441.888 194.203 442.238 194.665 442.615C195.118 443.001 195.517 443.435 195.879 443.909L195.995 444.06L196.157 443.93C196.76 443.451 197.238 443.014 197.713 442.503C198.163 441.989 198.642 441.501 199.061 440.967C199.484 440.436 199.877 439.884 200.251 439.318C200.629 438.752 200.968 438.162 201.362 437.61L201.305 437.526C200.644 437.839 200.129 438.322 199.618 438.783C199.117 439.257 198.65 439.76 198.219 440.287C197.782 440.812 197.412 441.387 197.007 441.932C196.612 442.465 196.278 443.128 195.903 443.595L196.181 443.616C195.723 443.241 195.31 442.818 194.955 442.343C194.609 441.859 194.298 441.343 193.934 440.88C193.561 440.425 193.136 440.016 192.713 439.607C192.283 439.204 191.825 438.824 191.327 438.471L191.247 438.532Z" fill="#FFA8A5"/>
<path d="M204.555 448.309C203.927 449.046 203.276 449.726 202.609 450.375C201.94 451.026 201.223 451.595 200.526 452.22C199.813 452.825 199.007 453.367 198.093 453.634C197.186 453.92 196.225 453.956 195.297 453.945L195.713 454.237C195.548 453.456 195.306 452.719 195.05 451.974C194.798 451.231 194.476 450.508 194.088 449.819C193.704 449.127 193.247 448.466 192.71 447.869C192.162 447.289 191.529 446.744 190.772 446.473L190.721 446.56C191.293 447.079 191.736 447.677 192.119 448.317C192.509 448.95 192.839 449.621 193.164 450.295L194.096 452.351C194.401 453.04 194.671 453.757 194.939 454.454L195.069 454.791L195.354 454.746C196.342 454.591 197.279 454.257 198.194 453.935C199.099 453.582 200.03 453.272 200.919 452.816C201.819 452.376 202.576 451.694 203.212 450.934C203.846 450.173 204.363 449.307 204.646 448.354L204.555 448.309Z" fill="#FFA8A5"/>
<path d="M186.558 455.791C186.254 456.523 186.149 457.322 186.169 458.113C186.203 458.902 186.327 459.698 186.604 460.443C186.895 461.182 187.322 461.861 187.798 462.477L189.192 464.328L189.291 464.46L189.451 464.346C190.205 463.81 191.062 463.404 191.879 462.978C192.695 462.54 193.541 462.164 194.387 461.805C195.232 461.44 196.077 461.071 196.944 460.745C197.805 460.391 198.691 460.11 199.591 459.772L199.576 459.672C197.657 459.63 195.718 460.037 193.953 460.815C193.068 461.201 192.235 461.697 191.43 462.22C190.627 462.756 189.911 463.401 189.209 464.066L189.469 464.084C188.953 463.54 188.483 462.939 188.183 462.249C187.849 461.575 187.684 460.841 187.455 460.155C187.01 458.769 186.728 457.342 186.657 455.814L186.558 455.791Z" fill="#FFA8A5"/>
<path d="M172.436 512.642H193.74C195.717 512.642 197.398 510.932 197.696 508.619L201.068 482.412C201.438 479.546 199.562 476.963 197.113 476.963H169.064C166.614 476.963 164.739 479.546 165.108 482.412L168.481 508.619C168.778 510.932 170.459 512.642 172.436 512.642Z" fill="#524787"/>
<path d="M169.064 476.965H183.403C180.953 476.965 179.078 479.547 179.447 482.413L182.819 508.621C183.117 510.934 184.799 512.643 186.775 512.643H172.436C170.459 512.643 168.778 510.934 168.481 508.621L165.108 482.413C164.739 479.547 166.614 476.965 169.064 476.965Z" fill="#38295C"/>
<path d="M363.272 505.445H274.17C273.273 505.445 272.546 506.172 272.546 507.07V511.017C272.546 511.915 273.273 512.642 274.17 512.642H363.272V505.445Z" fill="#3A4278"/>
<path d="M386.202 510.409V512.013C386.202 512.361 385.92 512.642 385.574 512.642H363.129C362.43 512.642 361.865 512.076 361.865 511.378V506.701C361.865 505.947 362.522 505.36 363.272 505.445L385.644 509.786C385.962 509.822 386.202 510.09 386.202 510.409Z" fill="#524787"/>
<path d="M207.558 354.005H374.087C377.457 354.005 380.462 356.119 381.605 359.289L418.024 460.429C419.547 465.645 415.731 469.553 409.598 470.214C408.657 470.315 404.184 468.304 397.16 465H248.282C244.914 465 241.907 462.887 240.765 459.717L207.866 368.353C202.303 365.45 199.132 363.791 199.132 363.791C199.132 363.791 197.073 354.005 207.558 354.005Z" fill="#636A98"/>
<path d="M368.873 359.219H202.344C199.98 359.219 198.33 361.565 199.132 363.79L235.551 464.93C236.693 468.1 239.701 470.213 243.07 470.213H409.597C411.964 470.213 413.612 467.867 412.811 465.641L376.392 364.502C375.25 361.332 372.242 359.219 368.873 359.219Z" fill="#838BC0"/>
<path d="M331.278 470.214L323.886 442.797L295.87 470.214H331.278Z" fill="#261B41"/>
<path d="M368.996 453.384L366.855 447.436H369.547L371.687 453.384H368.996Z" fill="#261B41"/>
<path d="M363.327 453.384L361.187 447.436H363.878L366.019 453.384H363.327Z" fill="#261B41"/>
<path d="M357.659 453.384L355.518 447.436H358.21L360.351 453.384H357.659Z" fill="#261B41"/>
<path d="M351.991 453.384L349.85 447.436H352.542L354.683 453.384H351.991Z" fill="#261B41"/>
<path d="M271.478 453.384L269.337 447.436H272.029L274.17 453.384H271.478Z" fill="#261B41"/>
<path d="M265.81 453.384L263.669 447.436H266.361L268.501 453.384H265.81Z" fill="#261B41"/>
<path d="M260.142 453.384L258 447.436H260.692L262.833 453.384H260.142Z" fill="#261B41"/>
<path d="M254.473 453.384L252.332 447.436H255.024L257.165 453.384H254.473Z" fill="#261B41"/>
<path d="M275.045 502.868C276.688 498.143 296.616 433.84 296.616 433.84H322.196L323.886 442.796C323.886 442.796 306.734 498.143 305.091 502.868C304.966 503.228 304.847 503.589 304.735 503.952H304.737C303.233 508.572 307.199 508.551 311.665 508.551H356.778V512.642H311.665H281.619C272.58 512.642 273.401 507.592 275.045 502.868Z" fill="#636A98"/>
<path d="M322.196 433.84C322.196 433.84 302.269 498.143 300.626 502.868C298.982 507.592 298.16 512.642 307.2 512.642H277.152C268.114 512.642 268.935 507.592 270.579 502.868C272.223 498.143 292.15 433.84 292.15 433.84H322.196Z" fill="#838BC0"/>
<path d="M315.932 433.84C313.95 433.749 311.968 433.704 309.986 433.639C308.005 433.571 306.023 433.555 304.041 433.513C302.059 433.481 300.077 433.423 298.095 433.422L292.15 433.385L291.819 433.384L291.716 433.705C290.887 436.295 290.07 438.889 289.291 441.494L286.921 449.298C285.396 454.519 283.868 459.738 282.474 464.999C284.305 459.874 286.002 454.707 287.702 449.541L290.17 441.766C291.004 439.178 291.8 436.579 292.585 433.975L292.15 434.295L298.095 434.258C300.077 434.258 302.059 434.2 304.041 434.168C306.023 434.125 308.005 434.11 309.986 434.041C311.968 433.977 313.95 433.932 315.932 433.84Z" fill="#8475D5"/>
<path d="M141.664 528.429H582.73C587.09 528.429 590.623 524.895 590.623 520.535C590.623 516.176 587.09 512.642 582.73 512.642H141.664C137.305 512.642 133.771 516.176 133.771 520.535C133.771 524.895 137.305 528.429 141.664 528.429Z" fill="#A14F58"/>
<path d="M141.664 528.429H582.73C587.09 528.429 590.623 524.895 590.623 520.535H133.771C133.771 524.895 137.305 528.429 141.664 528.429Z" fill="#713349"/>
<path d="M233.628 273.79C233.628 310.456 203.905 340.179 167.239 340.179C130.573 340.179 100.849 310.456 100.849 273.79C100.849 237.124 130.573 207.4 167.239 207.4C203.905 207.4 233.628 237.124 233.628 273.79Z" fill="#AEBAEA"/>
<path d="M261.828 260.81C261.828 282.133 279.113 299.418 300.434 299.418C321.756 299.418 339.042 282.133 339.042 260.81C339.042 239.488 321.756 222.203 300.434 222.203C279.113 222.203 261.828 239.488 261.828 260.81Z" fill="#E6B851"/>
<path d="M281.388 275.924H319.481C321.229 275.924 322.647 274.506 322.647 272.758V248.863C322.647 247.114 321.229 245.697 319.481 245.697H281.388C279.64 245.697 278.223 247.114 278.223 248.863V272.758C278.223 274.506 279.64 275.924 281.388 275.924Z" fill="#6C83DC"/>
<path d="M281.388 275.924H319.481C321.229 275.924 322.647 274.506 322.647 272.758L300.435 258.79L278.223 272.758C278.223 274.506 279.64 275.924 281.388 275.924Z" fill="#C8DDF5"/>
<path d="M281.388 245.697H319.481C321.229 245.697 322.647 247.114 322.647 248.862L300.435 262.83L278.223 248.862C278.223 247.114 279.64 245.697 281.388 245.697Z" fill="#4371D7"/>
<path d="M535.539 316.366C535.539 337.688 552.823 354.974 574.146 354.974C595.468 354.974 612.753 337.688 612.753 316.366C612.753 295.044 595.468 277.758 574.146 277.758C552.823 277.758 535.539 295.044 535.539 316.366Z" fill="#E6B851"/>
<path d="M567.545 317.892C564.255 317.892 561.589 315.225 561.589 311.935C561.589 308.645 564.255 305.978 567.545 305.978C570.836 305.978 573.502 308.645 573.502 311.935C573.502 315.225 570.836 317.892 567.545 317.892ZM584.975 308.817H581.093C580.742 307.285 580.138 305.855 579.327 304.563L582.075 301.816C582.449 301.441 582.449 300.834 582.075 300.459L579.021 297.406C578.647 297.031 578.039 297.031 577.665 297.406L574.918 300.153C573.625 299.342 572.195 298.738 570.664 298.387V294.506C570.664 293.976 570.234 293.546 569.705 293.546H565.387C564.857 293.546 564.428 293.976 564.428 294.506V298.387C562.897 298.738 561.465 299.342 560.173 300.153L557.427 297.406C557.052 297.031 556.443 297.031 556.069 297.406L553.016 300.459C552.642 300.834 552.642 301.441 553.016 301.816L555.763 304.563C554.953 305.855 554.35 307.285 553.998 308.817H550.117C549.586 308.817 549.158 309.247 549.158 309.776V314.094C549.158 314.624 549.586 315.053 550.117 315.053H553.998C554.35 316.584 554.953 318.015 555.763 319.307L553.016 322.054C552.642 322.429 552.642 323.037 553.016 323.411L556.069 326.464C556.443 326.839 557.052 326.839 557.427 326.464L560.173 323.717C561.465 324.527 562.897 325.131 564.428 325.482V329.364C564.428 329.894 564.857 330.323 565.387 330.323H569.705C570.234 330.323 570.664 329.894 570.664 329.364V325.482C572.195 325.131 573.625 324.527 574.918 323.717L577.665 326.464C578.039 326.839 578.647 326.839 579.021 326.464L582.075 323.411C582.449 323.037 582.449 322.429 582.075 322.054L579.327 319.307C580.138 318.015 580.742 316.584 581.093 315.053H584.975C585.505 315.053 585.934 314.624 585.934 314.094V309.776C585.934 309.247 585.505 308.817 584.975 308.817" fill="#6C83DC"/>
<path d="M567.545 316.998C564.749 316.998 562.483 314.73 562.483 311.934C562.483 309.138 564.749 306.872 567.545 306.872C570.341 306.872 572.609 309.138 572.609 311.934C572.609 314.73 570.341 316.998 567.545 316.998ZM567.545 303.642C562.966 303.642 559.253 307.355 559.253 311.934C559.253 316.515 562.966 320.226 567.545 320.226C572.125 320.226 575.838 316.515 575.838 311.934C575.838 307.355 572.125 303.642 567.545 303.642Z" fill="#4371D7"/>
<path d="M592.65 330.456C590.969 330.456 589.607 329.094 589.607 327.413C589.607 325.732 590.969 324.37 592.65 324.37C594.33 324.37 595.693 325.732 595.693 327.413C595.693 329.094 594.33 330.456 592.65 330.456ZM601.554 325.82H599.57C599.392 325.038 599.083 324.307 598.669 323.647L600.072 322.243C600.263 322.052 600.263 321.742 600.072 321.55L598.513 319.991C598.322 319.799 598.011 319.799 597.82 319.991L596.415 321.394C595.756 320.98 595.025 320.672 594.243 320.492V318.51C594.243 318.239 594.023 318.02 593.753 318.02H591.547C591.276 318.02 591.056 318.239 591.056 318.51V320.492C590.275 320.672 589.544 320.98 588.884 321.394L587.48 319.991C587.288 319.799 586.978 319.799 586.786 319.991L585.228 321.55C585.036 321.742 585.036 322.052 585.228 322.243L586.63 323.647C586.217 324.307 585.908 325.038 585.729 325.82H583.746C583.475 325.82 583.256 326.04 583.256 326.31V328.516C583.256 328.786 583.475 329.006 583.746 329.006H585.729C585.908 329.788 586.217 330.519 586.63 331.179L585.228 332.583C585.036 332.774 585.036 333.085 585.228 333.276L586.786 334.836C586.978 335.027 587.288 335.027 587.48 334.836L588.884 333.432C589.544 333.846 590.275 334.155 591.056 334.334V336.317C591.056 336.588 591.276 336.808 591.547 336.808H593.753C594.023 336.808 594.243 336.588 594.243 336.317V334.334C595.025 334.155 595.756 333.846 596.415 333.432L597.82 334.836C598.011 335.027 598.322 335.027 598.513 334.836L600.072 333.276C600.263 333.085 600.263 332.774 600.072 332.583L598.669 331.179C599.083 330.519 599.392 329.788 599.57 329.006H601.554C601.825 329.006 602.044 328.786 602.044 328.516V326.31C602.044 326.04 601.825 325.82 601.554 325.82" fill="#6C83DC"/>
<path d="M592.651 330C591.221 330 590.063 328.842 590.063 327.414C590.063 325.984 591.221 324.826 592.651 324.826C594.079 324.826 595.237 325.984 595.237 327.414C595.237 328.842 594.079 330 592.651 330ZM592.651 323.177C590.311 323.177 588.414 325.073 588.414 327.414C588.414 329.752 590.311 331.649 592.651 331.649C594.989 331.649 596.886 329.752 596.886 327.414C596.886 325.073 594.989 323.177 592.651 323.177Z" fill="#4371D7"/>
<path d="M361.367 207.013C361.367 228.335 378.652 245.62 399.974 245.62C421.296 245.62 438.581 228.335 438.581 207.013C438.581 185.69 421.296 168.405 399.974 168.405C378.652 168.405 361.367 185.69 361.367 207.013Z" fill="#E3E4EB"/>
<path d="M377.763 196.817H422.188V191.92C422.188 190.234 420.821 188.867 419.135 188.867H380.816C379.129 188.867 377.763 190.234 377.763 191.92V196.817Z" fill="#4371D7"/>
<path d="M402.779 205.392H405.162C405.567 205.392 405.895 205.064 405.895 204.659V202.275C405.895 201.87 405.567 201.543 405.162 201.543H402.779C402.375 201.543 402.046 201.87 402.046 202.275V204.659C402.046 205.064 402.375 205.392 402.779 205.392Z" fill="#6C83DC"/>
<path d="M393.621 205.392H396.004C396.41 205.392 396.737 205.064 396.737 204.659V202.275C396.737 201.87 396.41 201.543 396.004 201.543H393.621C393.217 201.543 392.889 201.87 392.889 202.275V204.659C392.889 205.064 393.217 205.392 393.621 205.392Z" fill="#6C83DC"/>
<path d="M384.463 205.392H386.847C387.252 205.392 387.58 205.064 387.58 204.659V202.275C387.58 201.87 387.252 201.543 386.847 201.543H384.463C384.059 201.543 383.73 201.87 383.73 202.275V204.659C383.73 205.064 384.059 205.392 384.463 205.392Z" fill="#6C83DC"/>
<path d="M411.936 213.277H414.319C414.725 213.277 415.052 212.949 415.052 212.545V210.161C415.052 209.756 414.725 209.429 414.319 209.429H411.936C411.532 209.429 411.204 209.756 411.204 210.161V212.545C411.204 212.949 411.532 213.277 411.936 213.277Z" fill="#6C83DC"/>
<path d="M402.779 213.277H405.162C405.567 213.277 405.895 212.949 405.895 212.545V210.161C405.895 209.756 405.567 209.429 405.162 209.429H402.779C402.375 209.429 402.046 209.756 402.046 210.161V212.545C402.046 212.949 402.375 213.277 402.779 213.277Z" fill="#6C83DC"/>
<path d="M393.621 213.277H396.004C396.41 213.277 396.737 212.949 396.737 212.545V210.161C396.737 209.756 396.41 209.429 396.004 209.429H393.621C393.217 209.429 392.889 209.756 392.889 210.161V212.545C392.889 212.949 393.217 213.277 393.621 213.277Z" fill="#6C83DC"/>
<path d="M384.463 213.277H386.847C387.252 213.277 387.58 212.949 387.58 212.545V210.161C387.58 209.756 387.252 209.429 386.847 209.429H384.463C384.059 209.429 383.73 209.756 383.73 210.161V212.545C383.73 212.949 384.059 213.277 384.463 213.277Z" fill="#6C83DC"/>
<path d="M411.936 221.163H414.319C414.725 221.163 415.052 220.835 415.052 220.43V218.046C415.052 217.641 414.725 217.313 414.319 217.313H411.936C411.532 217.313 411.204 217.641 411.204 218.046V220.43C411.204 220.835 411.532 221.163 411.936 221.163Z" fill="#6C83DC"/>
<path d="M402.779 221.163H405.162C405.567 221.163 405.895 220.835 405.895 220.43V218.046C405.895 217.641 405.567 217.313 405.162 217.313H402.779C402.375 217.313 402.046 217.641 402.046 218.046V220.43C402.046 220.835 402.375 221.163 402.779 221.163Z" fill="#6C83DC"/>
<path d="M393.621 221.163H396.004C396.41 221.163 396.737 220.835 396.737 220.43V218.046C396.737 217.641 396.41 217.313 396.004 217.313H393.621C393.217 217.313 392.889 217.641 392.889 218.046V220.43C392.889 220.835 393.217 221.163 393.621 221.163Z" fill="#6C83DC"/>
<path d="M549.102 226.853C549.102 248.175 531.817 265.46 510.495 265.46C489.173 265.46 471.889 248.175 471.889 226.853C471.889 205.531 489.173 188.245 510.495 188.245C531.817 188.245 549.102 205.531 549.102 226.853Z" fill="#FF7571"/>
<path d="M512.712 249.382V245.771C512.712 245.099 512.168 244.555 511.497 244.555H509.494C508.822 244.555 508.278 245.099 508.278 245.771V249.382C497.546 248.339 489.01 239.802 487.966 229.071H491.577C492.249 229.071 492.793 228.526 492.793 227.855V225.852C492.793 225.18 492.249 224.636 491.577 224.636H487.966C489.01 213.904 497.546 205.367 508.278 204.323V207.935C508.278 208.606 508.822 209.15 509.494 209.15H511.497C512.168 209.15 512.712 208.606 512.712 207.935V204.323C523.445 205.367 531.981 213.904 533.025 224.636H529.414C528.743 224.636 528.198 225.18 528.198 225.852V227.855C528.198 228.526 528.743 229.071 529.414 229.071H533.025C531.981 239.802 523.445 248.339 512.712 249.382ZM510.496 200.41C495.891 200.41 484.052 212.249 484.052 226.853C484.052 241.457 495.891 253.296 510.496 253.296C525.1 253.296 536.939 241.457 536.939 226.853C536.939 212.249 525.1 200.41 510.496 200.41Z" fill="#CC3834"/>
<path d="M492.299 188.596C492.299 186.296 492.919 184.54 494.159 183.326C495.231 182.254 496.639 181.718 498.383 181.718C499.985 181.718 501.347 182.318 502.471 183.519C503.608 184.721 504.176 186.122 504.176 187.724C504.176 189.377 503.808 190.972 503.072 192.509C502.671 193.362 501.735 194.828 500.262 196.907C499.862 197.476 499.268 198.36 498.48 199.562L497.821 200.55C497.395 201.196 497.072 201.706 496.852 202.08C496.749 202.261 496.697 202.371 496.697 202.41L503.885 202.429V206.013H492.241V202.662C492.241 202.584 492.513 202.138 493.055 201.325C493.3 200.95 493.578 200.537 493.888 200.085L494.837 198.709C495.393 197.947 496.265 196.726 497.453 195.047C498.577 193.472 499.416 192.044 499.972 190.766C500.424 189.719 500.65 188.744 500.65 187.84C500.65 187.104 500.443 186.477 500.03 185.961C499.578 185.418 498.997 185.147 498.286 185.147C497.266 185.147 496.542 185.735 496.116 186.91C495.974 187.297 495.903 187.762 495.903 188.305V189.235H492.299V188.596ZM504.363 197.101L510.834 181.718H514.495V197.101H516.84V200.782H514.495V206.013H510.834V200.782H504.363V197.101ZM510.834 197.101V189.526L507.811 197.101H510.834ZM502.374 216.206H505.358L495.225 242.769H492.241L502.374 216.206ZM518.884 217.718V221.399L513.75 242.013H510.165L515.3 221.399H507.879V217.718H518.884Z" fill="#D6C9DB"/>
<path d="M270.087 379.771C271.348 386.106 265.483 391.737 263.647 392.793C261.81 393.848 249.488 398.775 242.085 398.951C234.683 399.127 224.913 383.467 228.911 381.708C232.91 379.948 260.148 378.013 263.139 378.013C266.13 378.013 270.087 379.771 270.087 379.771Z" fill="#FFC6C8"/>
<path d="M250.674 376.43C247.444 395.432 239.77 410.213 237.375 410.477C234.981 410.74 211.977 402.823 205.636 399.919C199.294 397.016 207.582 352.417 211.53 353.203C215.477 353.988 224.129 362.556 231.275 366.665C238.419 370.774 250.674 376.43 250.674 376.43Z" fill="#F9CA45"/>
<path d="M212.784 384.329C215.002 388.132 233.282 397.772 243.35 401.286C240.862 406.897 238.518 410.35 237.375 410.476C235.325 410.702 218.167 404.93 209.297 401.443C210.04 394.381 212.784 384.329 212.784 384.329Z" fill="#C7A237"/>
<path d="M270.114 378.893C270.295 386.432 263.504 387.515 255.375 385.58C247.247 383.644 233.974 365.345 228.066 357.075C222.157 348.805 211.133 334.069 208.853 332.751C206.575 331.43 201.346 330.73 196.873 323.294C192.4 315.859 198.284 300.287 200.398 298.44C202.511 296.592 220.625 302.76 222.73 305.879C224.835 308.997 221.24 325.756 221.877 327.867C222.516 329.979 237.932 347.222 244.663 351.445C251.394 355.668 269.983 373.439 270.114 378.893Z" fill="#FFC6C8"/>
<path d="M209.676 310.881C207.545 309.826 207.03 305.03 208.37 305.876C209.711 306.721 212.055 306.703 215.227 306.658C218.398 306.614 219.699 306.341 219.699 306.341C219.699 306.341 220.023 308.418 220.008 310.121C220.008 310.121 211.806 311.937 209.676 310.881Z" fill="#FF8B8C"/>
<path d="M195.57 311.971C196.862 309.569 197.859 307.748 197.859 307.748L210.32 319.742C213.727 316.788 217.896 314.091 217.896 314.091L218.993 316.046C216.977 319.458 215.221 326.672 215.181 328.431C215.181 328.431 213.267 330.543 212.199 330.719C212.199 330.719 225.53 351.833 234.1 362.214C242.619 372.534 248.454 381.46 252.472 384.329C244.368 379.656 233.315 364.422 228.065 357.075C222.157 348.805 211.133 334.069 208.853 332.75C206.575 331.43 201.346 330.73 196.874 323.294C195.099 320.345 194.966 316.117 195.57 311.971Z" fill="#FF8B8C"/>
<path d="M221.506 313.175C221.354 314.406 208.972 325.14 207.675 326.371C207.578 326.464 206.611 326.605 206.345 326.371C203.051 323.477 188.671 297.365 188.415 296.423C188.174 295.543 197.721 286.561 200.636 284.158C201.033 283.83 202.669 284.029 202.937 284.426C205.878 288.782 221.701 311.586 221.506 313.175Z" fill="#050233"/>
<path d="M220.175 313.175C220.024 314.406 207.641 325.14 206.345 326.371C205.048 327.603 187.361 297.441 187.084 296.423C186.844 295.543 197.473 286.707 200.387 284.303C200.784 283.976 201.338 284.029 201.607 284.426C204.548 288.782 220.37 311.586 220.175 313.175Z" fill="#211E88"/>
<path d="M218.091 311.41C217.95 312.561 206.365 322.603 205.153 323.756C203.941 324.908 187.394 296.691 187.134 295.738C186.91 294.916 196.853 286.649 199.579 284.401C199.951 284.095 200.469 284.143 200.72 284.515C203.472 288.59 218.274 309.923 218.091 311.41Z" fill="#00B1FA"/>
<path d="M210.664 296.693C208.746 295.537 206.392 291.622 206.18 290.301C205.968 288.983 206.099 287.794 207.129 287.53C208.161 287.267 211.335 291.402 212.916 292.633C214.498 293.865 216.424 296.416 215.639 298.132C214.855 299.847 211.34 299.187 210.963 298.924C210.587 298.66 210.664 296.693 210.664 296.693Z" fill="#FFC6C8"/>
<path d="M206.537 287.878C205.929 289.379 209.89 295.399 213.363 297.133L212.072 298.608C212.072 298.608 211.486 298.479 210.733 298.301C210.63 297.633 210.664 296.693 210.664 296.693C208.747 295.537 206.392 291.622 206.18 290.303C206.019 289.302 206.061 288.382 206.537 287.878Z" fill="#FF8B8C"/>
<path d="M215.122 302.776C211.823 301.013 209.235 301.21 207.441 300.485C205.646 299.759 205.319 296.988 206.541 296.526C207.762 296.064 215.198 297.252 217.114 298.11C219.032 298.967 219.947 302.919 219.947 302.919L215.122 302.776Z" fill="#FFC6C8"/>
<path d="M213.678 300.72C215.544 301.072 216.185 300.72 216.185 300.72C216.132 301.449 216.82 301.812 217.595 302.849L215.122 302.776C211.823 301.013 209.235 301.211 207.441 300.485C206.622 300.154 206.126 299.397 205.925 298.628C206.725 300.148 211.821 300.37 213.678 300.72Z" fill="#FF8B8C"/>
<path d="M222.729 305.878C220.969 308.314 212.336 307.259 210.595 306.994C208.855 306.73 207.763 305.631 207.941 304.524C208.299 302.287 219.707 302.684 220.649 303.036C221.591 303.388 222.729 305.878 222.729 305.878Z" fill="#FFC6C8"/>
<path d="M208.003 305.062C209.182 306.234 212.018 306.902 215.112 307.152C217.792 307.368 219.332 307.264 219.688 307.233C216.434 307.751 211.818 307.179 210.596 306.995C209.142 306.775 208.191 305.966 208.003 305.062Z" fill="#FF8B8C"/>
<path d="M182.328 340.008C200.653 349.333 203.659 348.972 211.53 353.202C219.4 357.432 217.058 401.943 216.559 408.805C216.059 415.667 214.163 442.939 215.208 450.329C216.254 457.719 220.327 485.168 222.131 489.389C223.935 493.613 227.375 500.74 222.054 504.962C216.731 509.184 205.472 512.088 181.023 510.505C156.575 508.921 130.222 493.877 129.056 491.766C127.89 489.655 140.743 450.857 141.28 443.467C141.818 436.076 143.277 430.534 144.055 427.103C144.832 423.672 137.055 407.573 135.812 397.279C134.569 386.987 123.386 358.592 125.508 353.39C127.628 348.189 147.105 342.395 160.369 335.78C173.632 329.166 182.328 340.008 182.328 340.008Z" fill="#F9CA45"/>
<path d="M200.495 351.549C197.478 361.464 191.337 370.403 183.163 376.775C173.239 374.342 163.149 369.969 155.023 363.774C164.105 370.463 174.009 376.09 184.613 379.931C193.568 372.596 198.883 363.012 200.495 351.549Z" fill="#C7A237"/>
<path d="M196.754 346.83C193.235 345.328 188.713 343.257 182.328 340.008C182.328 340.008 173.632 329.166 160.369 335.781C155.767 338.075 150.418 340.271 145.303 342.378C153.204 355.82 166.006 366.335 180.784 371.336C188.576 365.199 194.179 356.407 196.754 346.83Z" fill="#FFC6C8"/>
<path opacity="0.2" d="M129.056 491.766C127.89 489.654 140.743 450.857 141.281 443.467C141.818 436.077 143.277 430.534 144.055 427.104C144.833 423.672 137.055 407.573 135.812 397.28C135.597 395.491 135.076 393.148 134.382 390.483L142.645 384.329C147.49 397.845 150.511 421.598 155.104 427.404C159.696 433.211 171.136 435.585 171.136 435.585C171.136 435.585 159.837 438.225 154.91 437.169C154.91 437.169 149.649 458.02 149.589 468.313C149.53 478.606 150.486 494.177 150.608 496.289C150.653 497.077 150.479 499.826 150.243 502.958C138.403 498.271 129.714 492.957 129.056 491.766Z" fill="black"/>
<path d="M162.45 317.031C162.261 328.044 161.534 335.609 159.094 337.722C159.094 337.722 163.291 355.997 180.046 354.436C185.716 353.908 185.176 344.407 182.329 340.009L184.015 326.501L162.45 317.031Z" fill="#FFC6C8"/>
<path d="M160.37 335.78C161.804 332.402 162.299 325.82 162.45 317.03L184.016 326.5L182.934 335.162C179.111 336.877 160.37 335.78 160.37 335.78Z" fill="#FF8B8C"/>
<path d="M103.063 406.103C99.3487 411.206 94.3804 423.874 96.245 429.681C98.1096 435.488 117.342 461.352 126.138 471.029C134.936 480.706 136.931 482.29 138.461 485.457C139.99 488.625 147.485 501.688 149.452 503.669C151.419 505.647 154.963 505.912 154.963 505.912C154.963 505.912 157.612 508.814 162.686 508.287C162.686 508.287 167.106 511.322 170.611 512.113C170.611 512.113 171.768 514.355 172.941 514.553C174.114 514.753 175.606 512.378 173.445 507.627C171.284 502.876 167.733 500.897 167.162 497.862C166.591 494.827 163.844 488.634 163.844 488.634C163.844 488.634 170.013 494.958 173.81 495.354C177.609 495.751 178.119 493.507 176.034 491.659C173.95 489.812 171.248 487.041 168.736 483.477C166.224 479.914 163.098 477.54 158.264 476.88C153.429 476.22 150.037 475.693 148.784 474.769C147.532 473.845 141.211 464.872 136.89 455.194C132.57 445.516 128.701 433.15 117.721 422.291L122.559 413.845L103.063 406.103Z" fill="#FFC6C8"/>
<path d="M170.449 511.509C169.512 508.833 167.793 506.55 165.899 504.519L165.149 503.781C164.927 503.55 164.536 503.26 164.45 503.124C164.072 502.642 163.745 502.006 163.38 501.434C162.684 500.247 162.006 499.038 161.236 497.872C161.604 499.243 162.096 500.551 162.649 501.841C162.92 502.498 163.216 503.107 163.63 503.757C163.95 504.182 164.157 504.27 164.403 504.547L165.109 505.276C166.06 506.249 166.96 507.273 167.867 508.294C168.768 509.324 169.611 510.395 170.449 511.509Z" fill="#FF8B8C"/>
<path d="M162.48 507.373C161.753 505.952 160.891 504.72 160.12 503.426C159.314 502.148 158.599 500.866 157.865 499.456C157.786 501.117 158.398 502.681 159.207 504.024C160.052 505.358 161.128 506.532 162.48 507.373Z" fill="#FF8B8C"/>
<path d="M158.618 507.936C156.224 507.245 154.963 505.912 154.963 505.912C154.963 505.912 151.419 505.647 149.451 503.668C148.648 502.859 146.918 500.191 145.052 497.112C145.093 497.161 147.304 499.563 148.893 501.546C151.132 504.338 154.346 503.414 154.346 503.414L153.916 500.841C153.916 500.841 156.053 506.683 158.618 507.936" fill="#FF8B8C"/>
<path d="M96.1636 423.229C96.268 425.636 96.2966 427.551 99.8688 433.87C103.889 440.981 128.05 470.951 133.32 476.494C138.591 482.036 138.435 482.389 141.554 491.145C140.146 488.67 138.971 486.512 138.461 485.457C136.932 482.29 134.936 480.706 126.138 471.028C117.342 461.352 98.1095 435.487 96.2449 429.68C95.7034 427.993 95.7506 425.72 96.1636 423.229Z" fill="#FF8B8C"/>
<path d="M115.101 416.302L113.139 419.574C113.139 419.574 115.794 420.292 117.721 422.29L121.551 415.791L115.101 416.302Z" fill="#FF8B8C"/>
<path d="M138.256 398.411C143.302 388.491 145.321 372.382 140.767 363.904C136.213 355.425 127.617 352.372 125.508 353.39C123.399 354.408 117.688 367.634 112.326 373.739C106.964 379.844 92.3217 396.97 91.8782 398.411C91.4337 399.853 102.461 411.487 123.202 420.031C125.671 421.049 138.256 398.411 138.256 398.411Z" fill="#F9CA45"/>
<g opacity="0.2">
<path d="M122.872 406.103L119.563 412.888C119.563 412.888 135.862 396.548 142.629 384.355C141.809 389.442 140.283 394.427 138.255 398.412C138.255 398.412 125.671 421.05 123.202 420.032C119.652 418.57 116.411 417.016 113.439 415.439L122.872 406.103Z" fill="black"/>
</g>
<path d="M185.262 318.016C184.141 313.476 184.165 308.833 183.894 304.19C183.692 300.718 183.515 297.541 180.364 295.464C178.062 293.947 175.174 293.649 172.465 293.992C165.184 294.916 163.618 302.012 164.175 308.73C164.602 313.872 166.611 318.81 168.606 323.54C165.928 323.422 162.272 322.018 160.672 319.79C161.391 322.722 162.751 325.417 164.877 327.491C157.117 327.357 149.915 322.28 145.804 315.46C141.694 308.642 140.391 300.315 140.829 292.29C141.348 282.765 144.318 273.217 150.21 265.884C162.059 251.135 184.887 249.415 198.789 262.09C203.568 266.447 207.035 272.289 208.768 278.624C211.048 286.951 211 295.885 209.225 304.309C208.49 307.796 208.153 310.816 207.806 314.308C207.699 315.391 206.386 327.963 207.146 327.917C202.244 328.215 196.612 327.225 193.291 323.478C194.78 326.052 196.065 328.531 197.554 331.104C191.364 330.075 186.815 324.307 185.262 318.016Z" fill="#A072AE"/>
<path d="M159.825 300.884C157.635 299.589 155.003 298.887 152.973 300.947C149.98 303.982 154.231 318.102 160.683 314.671C160.683 314.671 170.026 327.735 176.882 331.431C183.74 335.126 188.624 333.279 191.192 330.639C193.76 328 202.516 317.173 204.092 305.697C204.654 301.607 204.052 293.557 204.177 291.841C204.561 286.563 206.561 282.229 202.397 278.087C198.191 273.902 192.365 271.37 186.435 271.161C178.966 270.897 171.501 274.254 166.554 279.857C161.09 286.047 160.143 293.038 159.825 300.884Z" fill="#FFC6C8"/>
<path d="M154.032 304.806C154.59 302.219 156.797 301.71 158.438 303.512C160.12 305.36 160.403 311.212 159.971 312.074C159.538 312.936 156.648 312.875 156.1 311.088C155.553 309.302 157.236 308.182 158.86 308.712C158.86 308.712 159.315 306.104 157.986 304.425C156.658 302.746 155.275 303.389 154.936 303.82C154.596 304.251 154.032 304.806 154.032 304.806Z" fill="#FF8B8C"/>
<path d="M171.892 293.362C172.516 292.781 173.18 292.24 173.875 291.728C174.574 291.223 175.32 290.769 176.112 290.4C176.899 290.03 177.722 289.632 178.593 289.565C179.456 289.489 180.323 289.558 181.113 289.897L181.102 290.016C180.68 290.186 180.278 290.294 179.882 290.408L178.719 290.73C177.963 290.952 177.179 291.02 176.411 291.276C175.649 291.529 174.896 291.854 174.156 292.227C173.409 292.591 172.687 293.023 171.958 293.456L171.892 293.362Z" fill="#471052"/>
<path d="M201.081 290.4C200.373 290.025 199.625 289.753 198.847 289.589C198.074 289.415 197.282 289.328 196.487 289.308C195.688 289.291 194.894 289.455 194.105 289.449C193.31 289.452 192.511 289.476 191.637 289.388L191.612 289.274C192.36 288.732 193.211 288.439 194.07 288.273C194.936 288.097 195.803 288.24 196.638 288.365C197.479 288.488 198.297 288.705 199.064 289.024C199.826 289.353 200.55 289.761 201.154 290.302L201.081 290.4Z" fill="#471052"/>
<path d="M179.728 298.002C179.699 296.886 179.137 296.034 178.472 296.099C177.808 296.164 177.293 297.123 177.323 298.239C177.353 299.355 177.914 300.207 178.579 300.141C179.243 300.077 179.757 299.118 179.728 298.002Z" fill="#471052"/>
<path d="M197.356 296.592C197.326 295.475 196.862 294.613 196.319 294.667C195.776 294.721 195.36 295.669 195.389 296.785C195.418 297.901 195.883 298.763 196.425 298.709C196.968 298.656 197.385 297.708 197.356 296.592Z" fill="#471052"/>
<path d="M185.248 308.852C186.776 309.915 189.029 309.892 190.692 308.797C190.503 309.657 190.118 310.495 189.282 310.801C188.445 311.106 187.521 311.016 186.751 310.663C185.983 310.31 185.734 309.537 185.248 308.852Z" fill="#FF8B8C"/>
<path d="M179.131 315.401C182.813 315.46 191.664 314.781 194.549 314.371C193.412 318.1 190.427 321.784 186.26 321.786C182.509 321.789 180.03 318.705 179.131 315.401Z" fill="#C47E75"/>
<path d="M182.509 320.568C183.972 320.117 185.462 320.349 186.062 320.534C186.062 320.534 188.008 319.172 190.838 320.067C189.55 321.106 188.019 321.785 186.26 321.786C184.812 321.787 183.559 321.321 182.509 320.568Z" fill="#FF8485"/>
<path d="M192.051 317.491C188.325 318.653 184.257 318.318 180.747 317.053C180.723 316.503 180.682 315.948 180.639 315.393C184.278 315.316 190.167 314.875 193.321 314.523C193.049 315.554 192.64 316.563 192.051 317.491Z" fill="white"/>
<path d="M163.507 288.737C169.511 288.481 175.468 287.159 181.017 284.85C182.073 282.407 182.109 280.24 182.267 277.585C183.776 280.352 184.673 283.45 184.828 286.599C188.325 286.372 191.838 286.184 195.334 285.958C196.314 283.187 196.433 280.334 196.278 277.399C197.459 280.155 198.053 283.627 198.455 286.598C200.567 285.848 203.241 286.943 205.446 287.337C208.179 281.25 207.999 270.222 202.219 265.606C196.59 261.109 186.811 259.885 179.931 260.881C165.296 263 153.793 275.152 154.701 290.291C155.22 298.928 159.552 307.095 165.765 313.118C162.071 305.749 161.338 296.689 163.507 288.737Z" fill="#A072AE"/>
<path d="M596.749 195C587.358 195 579.749 202.61 579.749 212C579.749 217.067 581.964 221.618 585.484 224.737C588.489 227.387 592.432 229 596.749 229C601.072 229 605.014 227.387 608.013 224.73C611.533 221.618 613.749 217.067 613.749 212C613.749 202.61 606.139 195 596.749 195Z" fill="#CBD5FC"/>
<path d="M606.681 223.351C605.811 222.702 604.231 221.624 602.511 220.828C600.791 220.038 599.78 218.184 600.055 216.317C600.055 216.29 600.061 216.263 600.068 216.23C600.068 216.23 603.983 213.579 603.441 210.996C603.441 210.996 603.562 211.003 603.742 210.989C605.469 210.829 605.576 208.259 603.87 207.984C603.856 207.984 603.836 207.977 603.823 207.977L603.769 207.696C604.291 205.869 605.563 200.334 601.715 200.87C601.715 200.87 598.95 196.298 593.107 198.5C587.258 200.696 588.784 205.936 588.784 205.936L589.507 208.024C587.934 208.412 588.081 210.842 589.754 210.996C589.935 211.009 590.062 211.003 590.062 211.003C589.513 213.586 593.429 216.236 593.429 216.236C593.435 216.27 593.435 216.297 593.442 216.323C593.71 218.191 592.699 220.045 590.986 220.835C589.259 221.631 587.686 222.715 586.816 223.358C586.294 223.739 585.832 224.201 585.478 224.743C588.489 227.387 592.431 229 596.748 229C601.072 229 605.014 227.387 608.013 224.73C607.665 224.194 607.203 223.733 606.681 223.351Z" fill="#819FDE"/>
<path d="M389.249 20C376.268 20 365.749 30.5195 365.749 43.5C365.749 50.5037 368.811 56.7951 373.677 61.1065C377.832 64.7703 383.281 67 389.249 67C395.225 67 400.675 64.7703 404.82 61.0972C409.686 56.7951 412.749 50.5037 412.749 43.5C412.749 30.5195 402.229 20 389.249 20Z" fill="#CBD5FC"/>
<path d="M402.979 59.1912C401.776 58.2938 399.592 56.8042 397.215 55.7032C394.837 54.6115 393.44 52.0487 393.819 49.4674C393.819 49.4304 393.828 49.3934 393.838 49.3471C393.838 49.3471 399.25 45.6833 398.501 42.1121C398.501 42.1121 398.667 42.1213 398.917 42.1028C401.304 41.8808 401.452 38.328 399.093 37.9487C399.074 37.9487 399.047 37.9394 399.028 37.9394L398.954 37.5509C399.676 35.0251 401.434 27.3737 396.114 28.1139C396.114 28.1139 392.293 21.7948 384.216 24.8387C376.129 27.8733 378.239 35.1176 378.239 35.1176L379.238 38.0042C377.064 38.5408 377.267 41.8993 379.58 42.1121C379.83 42.1306 380.006 42.1213 380.006 42.1213C379.247 45.6926 384.66 49.3564 384.66 49.3564C384.669 49.4026 384.669 49.4396 384.678 49.4767C385.048 52.0579 383.651 54.6207 381.283 55.7125C378.896 56.8135 376.722 58.3123 375.519 59.2005C374.797 59.7278 374.159 60.3662 373.668 61.1156C377.832 64.7702 383.281 66.9999 389.249 66.9999C395.226 66.9999 400.675 64.7702 404.82 61.0971C404.339 60.357 403.7 59.7186 402.979 59.1912Z" fill="#819FDE"/>
<path d="M71.7486 184C77.2722 184 81.7485 188.476 81.7485 194C81.7485 196.98 80.4454 199.657 78.3745 201.492C76.6068 203.051 74.2879 204 71.7486 204C69.2053 204 66.8864 203.051 65.1226 201.488C63.0517 199.657 61.7486 196.98 61.7486 194C61.7486 188.476 66.2249 184 71.7486 184Z" fill="#CBD5FC"/>
<path d="M65.906 200.677C66.4178 200.295 67.3469 199.661 68.3587 199.193C69.3706 198.728 69.965 197.638 69.8036 196.539C69.8036 196.524 69.7997 196.508 69.7958 196.488C69.7958 196.488 67.4926 194.929 67.8115 193.409C67.8115 193.409 67.7406 193.413 67.6343 193.405C66.6186 193.311 66.5556 191.799 67.5595 191.638C67.5674 191.638 67.5792 191.634 67.5871 191.634L67.6186 191.468C67.3115 190.394 66.5635 187.138 68.8272 187.453C68.8272 187.453 70.4532 184.764 73.8902 186.059C77.3312 187.35 76.4335 190.433 76.4335 190.433L76.0083 191.661C76.9335 191.89 76.8469 193.319 75.8627 193.409C75.7564 193.417 75.6816 193.413 75.6816 193.413C76.0044 194.933 73.7013 196.492 73.7013 196.492C73.6973 196.512 73.6973 196.528 73.6934 196.543C73.5359 197.642 74.1304 198.732 75.1383 199.197C76.154 199.665 77.0792 200.303 77.591 200.681C77.8981 200.906 78.1698 201.177 78.3784 201.496C76.6068 203.051 74.2879 204 71.7485 204C69.2052 204 66.8863 203.051 65.1225 201.488C65.3273 201.173 65.5989 200.902 65.906 200.677Z" fill="#819FDE"/>
<path d="M180.249 531C168.925 531 159.749 540.177 159.749 551.5C159.749 557.61 162.42 563.098 166.665 566.859C170.289 570.055 175.043 572 180.249 572C185.462 572 190.216 570.055 193.832 566.851C198.077 563.098 200.749 557.61 200.749 551.5C200.749 540.177 191.572 531 180.249 531Z" fill="#CBD5FC"/>
<path d="M192.226 565.188C191.177 564.405 189.272 563.106 187.198 562.145C185.123 561.193 183.905 558.957 184.236 556.706C184.236 556.673 184.244 556.641 184.252 556.601C184.252 556.601 188.973 553.405 188.319 550.289C188.319 550.289 188.465 550.297 188.683 550.281C190.765 550.088 190.894 546.988 188.836 546.657C188.82 546.657 188.796 546.649 188.779 546.649L188.715 546.31C189.344 544.107 190.878 537.432 186.237 538.078C186.237 538.078 182.904 532.566 175.858 535.221C168.804 537.868 170.644 544.188 170.644 544.188L171.516 546.706C169.619 547.174 169.797 550.104 171.815 550.289C172.032 550.305 172.186 550.297 172.186 550.297C171.524 553.413 176.245 556.609 176.245 556.609C176.253 556.649 176.253 556.681 176.262 556.714C176.584 558.965 175.366 561.201 173.3 562.153C171.217 563.114 169.321 564.421 168.271 565.196C167.642 565.656 167.085 566.213 166.657 566.867C170.289 570.055 175.043 572 180.249 572C185.462 572 190.216 570.055 193.832 566.851C193.412 566.205 192.855 565.648 192.226 565.188Z" fill="#819FDE"/>
<circle opacity="0.4" cx="386.662" cy="341" r="297.5" stroke="#8A8FB9"/>
<circle opacity="0.4" cx="386.162" cy="341.5" r="287" stroke="#8A8FB9"/>
<circle cx="679.162" cy="397.5" r="5.5" fill="#819FDE"/>
<circle cx="491.162" cy="572.5" r="5.5" fill="#819FDE"/>
<circle opacity="0.75" cx="386.662" cy="341" r="252.5" stroke="#CBD5FC"/>
<circle opacity="0.75" cx="393.162" cy="341.5" r="199" stroke="#CBD5FC"/>
<circle cx="639.662" cy="363" r="9" fill="#819FDE"/>
<circle cx="242.662" cy="97" r="9" fill="#819FDE"/>
<circle cx="402.662" cy="683" r="9" fill="#819FDE"/>
<circle cx="44.6621" cy="332" r="9" fill="#819FDE"/>
<path d="M369.662 567H308.662V597.806H352.133L348.628 610L369.662 597.806V567Z" fill="#819FDE"/>
<path d="M577.662 115H555.662V127.179H571.34L570.076 132L577.662 127.179V115Z" fill="#819FDE"/>
<circle cx="386.162" cy="341.5" r="341" stroke="#CBD5FC"/>
<circle cx="287.662" cy="172" r="3" fill="#819FDE"/>
</svg>
